{
	"asset":{
		"generator":"Khronos glTF Blender I/O v3.5.30",
		"version":"2.0"
	},
	"extensionsUsed":[
		"KHR_materials_specular",
		"KHR_materials_ior"
	],
	"scene":0,
	"scenes":[
		{
			"name":"Scene",
			"nodes":[
				0,
				1,
				2,
				7,
				8,
				9,
				10,
				11,
				12
			]
		}
	],
	"nodes":[
		{
			"mesh":0,
			"name":"LP.001",
			"translation":[
				0,
				2.0576422214508057,
				0
			]
		},
		{
			"mesh":1,
			"name":"board"
		},
		{
			"mesh":2,
			"name":"light1Outline"
		},
		{
			"name":"NewGroup0D_baked16",
			"rotation":[
				-0.03645928576588631,
				0.021010620519518852,
				-0.4879249632358551,
				0.8718706965446472
			],
			"scale":[
				1.5997569561004639,
				1.5997569561004639,
				1.5997568368911743
			],
			"translation":[
				304.57733154296875,
				68.77543640136719,
				-24.157167434692383
			]
		},
		{
			"mesh":3,
			"name":"NewLayer0_0000",
			"translation":[
				3.0517578125e-05,
				0,
				0
			]
		},
		{
			"children":[
				4
			],
			"name":"NewLayer0",
			"translation":[
				3.0517578125e-05,
				28.421972274780273,
				0
			]
		},
		{
			"children":[
				3,
				5
			],
			"name":"Root",
			"translation":[
				3.0517578125e-05,
				0,
				0
			]
		},
		{
			"children":[
				6
			],
			"name":"BakedMesh",
			"rotation":[
				0.7071068286895752,
				0,
				0,
				0.7071068286895752
			],
			"scale":[
				0.06369438022375107,
				0.06369438022375107,
				0.06369438022375107
			],
			"translation":[
				-21.757537841796875,
				0,
				0
			]
		},
		{
			"mesh":4,
			"name":"LP",
			"translation":[
				33.451576232910156,
				0,
				0
			]
		},
		{
			"mesh":5,
			"name":"LP.002",
			"translation":[
				33.451576232910156,
				2.6334829330444336,
				0
			]
		},
		{
			"mesh":6,
			"name":"LP.003",
			"translation":[
				32.73931121826172,
				2.0345077514648438,
				0.1116488054394722
			]
		},
		{
			"mesh":7,
			"name":"Plane",
			"translation":[
				29.209375381469727,
				0,
				0
			]
		},
		{
			"mesh":8,
			"name":"Plane.002",
			"translation":[
				33.932376861572266,
				-9.887653350830078,
				0
			]
		}
	],
	"materials":[
		{
			"doubleSided":true,
			"extensions":{
				"KHR_materials_specular":{
					"specularColorFactor":[
						2.371357614441398,
						2.371357614441398,
						2.371357614441398
					]
				},
				"KHR_materials_ior":{
					"ior":1.4500000476837158
				}
			},
			"name":"keyboard.001",
			"normalTexture":{
				"index":0
			},
			"pbrMetallicRoughness":{
				"baseColorTexture":{
					"index":1
				},
				"roughnessFactor":0.5527864098548889
			}
		},
		{
			"doubleSided":true,
			"name":"board",
			"pbrMetallicRoughness":{
				"baseColorFactor":[
					0.800000011920929,
					0.800000011920929,
					0.800000011920929,
					1
				],
				"metallicFactor":0,
				"roughnessFactor":0.5
			}
		},
		{
			"extensions":{
				"KHR_materials_specular":{
					"specularColorFactor":[
						2.371357614441398,
						2.371357614441398,
						2.371357614441398
					]
				},
				"KHR_materials_ior":{
					"ior":1.4500000476837158
				}
			},
			"name":"outline",
			"pbrMetallicRoughness":{
				"baseColorFactor":[
					0,
					0,
					0,
					1
				],
				"roughnessFactor":0.5527864098548889
			}
		},
		{
			"doubleSided":true,
			"name":"Single Sided Material",
			"pbrMetallicRoughness":{
				"metallicFactor":0,
				"roughnessFactor":0.5527864098548889
			}
		},
		{
			"doubleSided":true,
			"name":"Double Sided Material",
			"pbrMetallicRoughness":{
				"metallicFactor":0,
				"roughnessFactor":0.5527864098548889
			}
		},
		{
			"doubleSided":true,
			"extensions":{
				"KHR_materials_specular":{
					"specularColorFactor":[
						2.371357614441398,
						2.371357614441398,
						2.371357614441398
					]
				},
				"KHR_materials_ior":{
					"ior":1.4500000476837158
				}
			},
			"name":"keyboard.002",
			"normalTexture":{
				"index":2
			},
			"pbrMetallicRoughness":{
				"baseColorTexture":{
					"index":3
				},
				"roughnessFactor":0.5527864098548889
			}
		},
		{
			"doubleSided":true,
			"name":"keys",
			"pbrMetallicRoughness":{
				"metallicFactor":0,
				"roughnessFactor":0.5
			}
		}
	],
	"meshes":[
		{
			"name":"body.001",
			"primitives":[
				{
					"attributes":{
						"POSITION":0,
						"TEXCOORD_0":1,
						"NORMAL":2
					},
					"indices":3,
					"material":0
				}
			]
		},
		{
			"name":"Plane.004",
			"primitives":[
				{
					"attributes":{
						"COLOR_0":4,
						"POSITION":5,
						"TEXCOORD_0":6,
						"NORMAL":7
					},
					"indices":8,
					"material":1
				}
			]
		},
		{
			"name":"Sphere.004",
			"primitives":[
				{
					"attributes":{
						"COLOR_0":9,
						"POSITION":10,
						"TEXCOORD_0":11,
						"NORMAL":12
					},
					"indices":13,
					"material":2
				}
			]
		},
		{
			"name":"element",
			"primitives":[
				{
					"attributes":{
						"COLOR_0":14,
						"POSITION":15,
						"NORMAL":16
					},
					"indices":17,
					"material":3
				},
				{
					"attributes":{
						"COLOR_0":18,
						"POSITION":19,
						"NORMAL":20
					},
					"indices":21,
					"material":4
				}
			]
		},
		{
			"name":"body",
			"primitives":[
				{
					"attributes":{
						"POSITION":22,
						"TEXCOORD_0":23,
						"NORMAL":24
					},
					"indices":25,
					"material":5
				},
				{
					"attributes":{
						"POSITION":26,
						"TEXCOORD_0":27,
						"NORMAL":28
					},
					"indices":29,
					"material":2
				}
			]
		},
		{
			"name":"body.002",
			"primitives":[
				{
					"attributes":{
						"POSITION":30,
						"TEXCOORD_0":31,
						"NORMAL":32
					},
					"indices":33,
					"material":0
				}
			]
		},
		{
			"name":"body.003",
			"primitives":[
				{
					"attributes":{
						"POSITION":34,
						"TEXCOORD_0":35,
						"NORMAL":36
					},
					"indices":37,
					"material":0
				}
			]
		},
		{
			"name":"Plane",
			"primitives":[
				{
					"attributes":{
						"POSITION":38,
						"TEXCOORD_0":39,
						"NORMAL":40
					},
					"indices":41
				}
			]
		},
		{
			"name":"Plane.003",
			"primitives":[
				{
					"attributes":{
						"POSITION":42,
						"TEXCOORD_0":43,
						"NORMAL":44
					},
					"indices":45,
					"material":6
				}
			]
		}
	],
	"textures":[
		{
			"sampler":0,
			"source":0
		},
		{
			"sampler":0,
			"source":1
		},
		{
			"sampler":0,
			"source":0
		},
		{
			"sampler":0,
			"source":1
		}
	],
	"images":[
		{
			"mimeType":"image/png",
			"name":"keyboard_normal",
			"uri":"keyboard_normal.png"
		},
		{
			"mimeType":"image/png",
			"name":"keyboard_albedo",
			"uri":"keyboard_albedo.png"
		}
	],
	"accessors":[
		{
			"bufferView":0,
			"componentType":5126,
			"count":544,
			"max":[
				0.1361047327518463,
				0.08212840557098389,
				0.6325836777687073
			],
			"min":[
				-1.2350000143051147,
				-0.17158901691436768,
				-0.6325836777687073
			],
			"type":"VEC3"
		},
		{
			"bufferView":1,
			"componentType":5126,
			"count":544,
			"type":"VEC2"
		},
		{
			"bufferView":2,
			"componentType":5126,
			"count":544,
			"type":"VEC3"
		},
		{
			"bufferView":3,
			"componentType":5123,
			"count":1260,
			"type":"SCALAR"
		},
		{
			"bufferView":4,
			"componentType":5123,
			"count":6534,
			"normalized":true,
			"type":"VEC4"
		},
		{
			"bufferView":5,
			"componentType":5126,
			"count":6534,
			"max":[
				7.249111652374268,
				1.6316053867340088,
				5.764577865600586
			],
			"min":[
				-7.249112129211426,
				-1.6316053867340088,
				-5.764577865600586
			],
			"type":"VEC3"
		},
		{
			"bufferView":6,
			"componentType":5126,
			"count":6534,
			"type":"VEC2"
		},
		{
			"bufferView":7,
			"componentType":5126,
			"count":6534,
			"type":"VEC3"
		},
		{
			"bufferView":8,
			"componentType":5123,
			"count":19866,
			"type":"SCALAR"
		},
		{
			"bufferView":9,
			"componentType":5123,
			"count":6530,
			"normalized":true,
			"type":"VEC4"
		},
		{
			"bufferView":10,
			"componentType":5126,
			"count":6530,
			"max":[
				7.4921746253967285,
				1.7758921384811401,
				5.963454246520996
			],
			"min":[
				-7.492175102233887,
				-1.8003535270690918,
				-5.963454723358154
			],
			"type":"VEC3"
		},
		{
			"bufferView":11,
			"componentType":5126,
			"count":6530,
			"type":"VEC2"
		},
		{
			"bufferView":12,
			"componentType":5126,
			"count":6530,
			"type":"VEC3"
		},
		{
			"bufferView":13,
			"componentType":5123,
			"count":19854,
			"type":"SCALAR"
		},
		{
			"bufferView":14,
			"componentType":5123,
			"count":2786,
			"normalized":true,
			"type":"VEC4"
		},
		{
			"bufferView":15,
			"componentType":5126,
			"count":2786,
			"max":[
				59.1536865234375,
				-217.28880310058594,
				17.25432014465332
			],
			"min":[
				34.508689880371094,
				-237.42050170898438,
				-2.784332752227783
			],
			"type":"VEC3"
		},
		{
			"bufferView":16,
			"componentType":5126,
			"count":2786,
			"type":"VEC3"
		},
		{
			"bufferView":17,
			"componentType":5123,
			"count":15834,
			"type":"SCALAR"
		},
		{
			"bufferView":18,
			"componentType":5123,
			"count":52,
			"normalized":true,
			"type":"VEC4"
		},
		{
			"bufferView":19,
			"componentType":5126,
			"count":52,
			"max":[
				39.84944534301758,
				-213.10145568847656,
				7.572108268737793
			],
			"min":[
				39.156558990478516,
				-215.7147216796875,
				3.5496809482574463
			],
			"type":"VEC3"
		},
		{
			"bufferView":20,
			"componentType":5126,
			"count":52,
			"type":"VEC3"
		},
		{
			"bufferView":21,
			"componentType":5123,
			"count":150,
			"type":"SCALAR"
		},
		{
			"bufferView":22,
			"componentType":5126,
			"count":733,
			"max":[
				1.2350000143051147,
				0.17158901691436768,
				0.6325836777687073
			],
			"min":[
				-1.2350000143051147,
				-0.17158901691436768,
				-0.6325836777687073
			],
			"type":"VEC3"
		},
		{
			"bufferView":23,
			"componentType":5126,
			"count":733,
			"type":"VEC2"
		},
		{
			"bufferView":24,
			"componentType":5126,
			"count":733,
			"type":"VEC3"
		},
		{
			"bufferView":25,
			"componentType":5123,
			"count":3480,
			"type":"SCALAR"
		},
		{
			"bufferView":26,
			"componentType":5126,
			"count":1757,
			"max":[
				1.2416820526123047,
				0.17669984698295593,
				0.6393240094184875
			],
			"min":[
				-1.2416824102401733,
				-0.1788174957036972,
				-0.6392533779144287
			],
			"type":"VEC3"
		},
		{
			"bufferView":27,
			"componentType":5126,
			"count":1757,
			"type":"VEC2"
		},
		{
			"bufferView":28,
			"componentType":5126,
			"count":1757,
			"type":"VEC3"
		},
		{
			"bufferView":29,
			"componentType":5123,
			"count":3480,
			"type":"SCALAR"
		},
		{
			"bufferView":30,
			"componentType":5126,
			"count":74,
			"max":[
				0.02499997615814209,
				0.17158901691436768,
				-0.32376331090927124
			],
			"min":[
				-0.7750000357627869,
				0.056281447410583496,
				-0.5230022668838501
			],
			"type":"VEC3"
		},
		{
			"bufferView":31,
			"componentType":5126,
			"count":74,
			"type":"VEC2"
		},
		{
			"bufferView":32,
			"componentType":5126,
			"count":74,
			"type":"VEC3"
		},
		{
			"bufferView":33,
			"componentType":5123,
			"count":120,
			"type":"SCALAR"
		},
		{
			"bufferView":34,
			"componentType":5126,
			"count":341,
			"max":[
				0.02499997615814209,
				0.575279951095581,
				0.5230022668838501
			],
			"min":[
				-1.125,
				0.40767890214920044,
				-0.27395355701446533
			],
			"type":"VEC3"
		},
		{
			"bufferView":35,
			"componentType":5126,
			"count":341,
			"type":"VEC2"
		},
		{
			"bufferView":36,
			"componentType":5126,
			"count":341,
			"type":"VEC3"
		},
		{
			"bufferView":37,
			"componentType":5123,
			"count":558,
			"type":"SCALAR"
		},
		{
			"bufferView":38,
			"componentType":5126,
			"count":168,
			"max":[
				1,
				0.30188798904418945,
				1
			],
			"min":[
				-1,
				0,
				-1
			],
			"type":"VEC3"
		},
		{
			"bufferView":39,
			"componentType":5126,
			"count":168,
			"type":"VEC2"
		},
		{
			"bufferView":40,
			"componentType":5126,
			"count":168,
			"type":"VEC3"
		},
		{
			"bufferView":41,
			"componentType":5123,
			"count":324,
			"type":"SCALAR"
		},
		{
			"bufferView":42,
			"componentType":5126,
			"count":24,
			"max":[
				-6.481900691986084,
				1.4613116979599,
				3
			],
			"min":[
				-19.71873664855957,
				0.4969581365585327,
				-3
			],
			"type":"VEC3"
		},
		{
			"bufferView":43,
			"componentType":5126,
			"count":24,
			"type":"VEC2"
		},
		{
			"bufferView":44,
			"componentType":5126,
			"count":24,
			"type":"VEC3"
		},
		{
			"bufferView":45,
			"componentType":5123,
			"count":36,
			"type":"SCALAR"
		}
	],
	"bufferViews":[
		{
			"buffer":0,
			"byteLength":6528,
			"byteOffset":0,
			"target":34962
		},
		{
			"buffer":0,
			"byteLength":4352,
			"byteOffset":6528,
			"target":34962
		},
		{
			"buffer":0,
			"byteLength":6528,
			"byteOffset":10880,
			"target":34962
		},
		{
			"buffer":0,
			"byteLength":2520,
			"byteOffset":17408,
			"target":34963
		},
		{
			"buffer":0,
			"byteLength":52272,
			"byteOffset":19928,
			"target":34962
		},
		{
			"buffer":0,
			"byteLength":78408,
			"byteOffset":72200,
			"target":34962
		},
		{
			"buffer":0,
			"byteLength":52272,
			"byteOffset":150608,
			"target":34962
		},
		{
			"buffer":0,
			"byteLength":78408,
			"byteOffset":202880,
			"target":34962
		},
		{
			"buffer":0,
			"byteLength":39732,
			"byteOffset":281288,
			"target":34963
		},
		{
			"buffer":0,
			"byteLength":52240,
			"byteOffset":321020,
			"target":34962
		},
		{
			"buffer":0,
			"byteLength":78360,
			"byteOffset":373260,
			"target":34962
		},
		{
			"buffer":0,
			"byteLength":52240,
			"byteOffset":451620,
			"target":34962
		},
		{
			"buffer":0,
			"byteLength":78360,
			"byteOffset":503860,
			"target":34962
		},
		{
			"buffer":0,
			"byteLength":39708,
			"byteOffset":582220,
			"target":34963
		},
		{
			"buffer":0,
			"byteLength":22288,
			"byteOffset":621928,
			"target":34962
		},
		{
			"buffer":0,
			"byteLength":33432,
			"byteOffset":644216,
			"target":34962
		},
		{
			"buffer":0,
			"byteLength":33432,
			"byteOffset":677648,
			"target":34962
		},
		{
			"buffer":0,
			"byteLength":31668,
			"byteOffset":711080,
			"target":34963
		},
		{
			"buffer":0,
			"byteLength":416,
			"byteOffset":742748,
			"target":34962
		},
		{
			"buffer":0,
			"byteLength":624,
			"byteOffset":743164,
			"target":34962
		},
		{
			"buffer":0,
			"byteLength":624,
			"byteOffset":743788,
			"target":34962
		},
		{
			"buffer":0,
			"byteLength":300,
			"byteOffset":744412,
			"target":34963
		},
		{
			"buffer":0,
			"byteLength":8796,
			"byteOffset":744712,
			"target":34962
		},
		{
			"buffer":0,
			"byteLength":5864,
			"byteOffset":753508,
			"target":34962
		},
		{
			"buffer":0,
			"byteLength":8796,
			"byteOffset":759372,
			"target":34962
		},
		{
			"buffer":0,
			"byteLength":6960,
			"byteOffset":768168,
			"target":34963
		},
		{
			"buffer":0,
			"byteLength":21084,
			"byteOffset":775128,
			"target":34962
		},
		{
			"buffer":0,
			"byteLength":14056,
			"byteOffset":796212,
			"target":34962
		},
		{
			"buffer":0,
			"byteLength":21084,
			"byteOffset":810268,
			"target":34962
		},
		{
			"buffer":0,
			"byteLength":6960,
			"byteOffset":831352,
			"target":34963
		},
		{
			"buffer":0,
			"byteLength":888,
			"byteOffset":838312,
			"target":34962
		},
		{
			"buffer":0,
			"byteLength":592,
			"byteOffset":839200,
			"target":34962
		},
		{
			"buffer":0,
			"byteLength":888,
			"byteOffset":839792,
			"target":34962
		},
		{
			"buffer":0,
			"byteLength":240,
			"byteOffset":840680,
			"target":34963
		},
		{
			"buffer":0,
			"byteLength":4092,
			"byteOffset":840920,
			"target":34962
		},
		{
			"buffer":0,
			"byteLength":2728,
			"byteOffset":845012,
			"target":34962
		},
		{
			"buffer":0,
			"byteLength":4092,
			"byteOffset":847740,
			"target":34962
		},
		{
			"buffer":0,
			"byteLength":1116,
			"byteOffset":851832,
			"target":34963
		},
		{
			"buffer":0,
			"byteLength":2016,
			"byteOffset":852948,
			"target":34962
		},
		{
			"buffer":0,
			"byteLength":1344,
			"byteOffset":854964,
			"target":34962
		},
		{
			"buffer":0,
			"byteLength":2016,
			"byteOffset":856308,
			"target":34962
		},
		{
			"buffer":0,
			"byteLength":648,
			"byteOffset":858324,
			"target":34963
		},
		{
			"buffer":0,
			"byteLength":288,
			"byteOffset":858972,
			"target":34962
		},
		{
			"buffer":0,
			"byteLength":192,
			"byteOffset":859260,
			"target":34962
		},
		{
			"buffer":0,
			"byteLength":288,
			"byteOffset":859452,
			"target":34962
		},
		{
			"buffer":0,
			"byteLength":72,
			"byteOffset":859740,
			"target":34963
		}
	],
	"samplers":[
		{
			"magFilter":9729,
			"minFilter":9987
		}
	],
	"buffers":[
		{
			"byteLength":859812,
			"uri":"keyboard.bin"
		}
	]
}
