{
	"asset":{
		"generator":"Khronos glTF Blender I/O v3.5.30",
		"version":"2.0"
	},
	"scene":2,
	"scenes":[
		{
			"name":"Scene"
		},
		{
			"name":"Scene.001"
		},
		{
			"name":"Scene.002",
			"nodes":[
				0
			]
		}
	],
	"nodes":[
		{
			"mesh":0,
			"name":"buildings"
		}
	],
	"animations":[
		{
			"channels":[
				{
					"sampler":0,
					"target":{
						"node":0,
						"path":"translation"
					}
				},
				{
					"sampler":1,
					"target":{
						"node":0,
						"path":"rotation"
					}
				},
				{
					"sampler":2,
					"target":{
						"node":0,
						"path":"scale"
					}
				}
			],
			"name":"buildings",
			"samplers":[
				{
					"input":5,
					"interpolation":"LINEAR",
					"output":6
				},
				{
					"input":5,
					"interpolation":"LINEAR",
					"output":7
				},
				{
					"input":5,
					"interpolation":"LINEAR",
					"output":8
				}
			]
		}
	],
	"materials":[
		{
			"doubleSided":true,
			"name":"buildings",
			"pbrMetallicRoughness":{
				"baseColorFactor":[
					0.800000011920929,
					0.800000011920929,
					0.800000011920929,
					1
				],
				"metallicFactor":0,
				"roughnessFactor":0.5
			}
		}
	],
	"meshes":[
		{
			"name":"Mesh.003",
			"primitives":[
				{
					"attributes":{
						"COLOR_0":0,
						"POSITION":1,
						"TEXCOORD_0":2,
						"NORMAL":3
					},
					"indices":4,
					"material":0
				}
			]
		}
	],
	"accessors":[
		{
			"bufferView":0,
			"componentType":5123,
			"count":7317,
			"normalized":true,
			"type":"VEC4"
		},
		{
			"bufferView":1,
			"componentType":5126,
			"count":7317,
			"max":[
				256.898681640625,
				0.9889307022094727,
				115.3652572631836
			],
			"min":[
				-151.14089965820312,
				-230.6881561279297,
				-292.67431640625
			],
			"type":"VEC3"
		},
		{
			"bufferView":2,
			"componentType":5126,
			"count":7317,
			"type":"VEC2"
		},
		{
			"bufferView":3,
			"componentType":5126,
			"count":7317,
			"type":"VEC3"
		},
		{
			"bufferView":4,
			"componentType":5123,
			"count":13638,
			"type":"SCALAR"
		},
		{
			"bufferView":5,
			"componentType":5126,
			"count":25,
			"max":[
				0.8333333333333334
			],
			"min":[
				0.03333333333333333
			],
			"type":"SCALAR"
		},
		{
			"bufferView":6,
			"componentType":5126,
			"count":25,
			"type":"VEC3"
		},
		{
			"bufferView":7,
			"componentType":5126,
			"count":25,
			"type":"VEC4"
		},
		{
			"bufferView":8,
			"componentType":5126,
			"count":25,
			"type":"VEC3"
		}
	],
	"bufferViews":[
		{
			"buffer":0,
			"byteLength":58536,
			"byteOffset":0,
			"target":34962
		},
		{
			"buffer":0,
			"byteLength":87804,
			"byteOffset":58536,
			"target":34962
		},
		{
			"buffer":0,
			"byteLength":58536,
			"byteOffset":146340,
			"target":34962
		},
		{
			"buffer":0,
			"byteLength":87804,
			"byteOffset":204876,
			"target":34962
		},
		{
			"buffer":0,
			"byteLength":27276,
			"byteOffset":292680,
			"target":34963
		},
		{
			"buffer":0,
			"byteLength":100,
			"byteOffset":319956
		},
		{
			"buffer":0,
			"byteLength":300,
			"byteOffset":320056
		},
		{
			"buffer":0,
			"byteLength":400,
			"byteOffset":320356
		},
		{
			"buffer":0,
			"byteLength":300,
			"byteOffset":320756
		}
	],
	"buffers":[
		{
			"byteLength":321056,
			"uri":"buildings.bin"
		}
	]
}
