{
	"asset":{
		"generator":"Khronos glTF Blender I/O v3.5.30",
		"version":"2.0"
	},
	"scene":2,
	"scenes":[
		{
			"name":"Scene"
		},
		{
			"name":"Scene.001"
		},
		{
			"name":"Scene.002",
			"nodes":[
				0
			]
		}
	],
	"nodes":[
		{
			"mesh":0,
			"name":"buildings"
		}
	],
	"animations":[
		{
			"channels":[
				{
					"sampler":0,
					"target":{
						"node":0,
						"path":"translation"
					}
				},
				{
					"sampler":1,
					"target":{
						"node":0,
						"path":"rotation"
					}
				},
				{
					"sampler":2,
					"target":{
						"node":0,
						"path":"scale"
					}
				}
			],
			"name":"buildings",
			"samplers":[
				{
					"input":10,
					"interpolation":"LINEAR",
					"output":11
				},
				{
					"input":10,
					"interpolation":"LINEAR",
					"output":12
				},
				{
					"input":10,
					"interpolation":"LINEAR",
					"output":13
				}
			]
		}
	],
	"materials":[
		{
			"doubleSided":true,
			"name":"buildings",
			"pbrMetallicRoughness":{
				"baseColorFactor":[
					0.800000011920929,
					0.800000011920929,
					0.800000011920929,
					1
				],
				"metallicFactor":0,
				"roughnessFactor":0.5
			}
		}
	],
	"meshes":[
		{
			"name":"Mesh.22579",
			"primitives":[
				{
					"attributes":{
						"COLOR_0":0,
						"POSITION":1,
						"TEXCOORD_0":2,
						"TEXCOORD_1":3,
						"TEXCOORD_2":4,
						"TEXCOORD_3":5,
						"TEXCOORD_4":6,
						"TEXCOORD_5":7,
						"NORMAL":8
					},
					"indices":9,
					"material":0
				}
			]
		}
	],
	"accessors":[
		{
			"bufferView":0,
			"componentType":5123,
			"count":6478,
			"normalized":true,
			"type":"VEC4"
		},
		{
			"bufferView":1,
			"componentType":5126,
			"count":6478,
			"max":[
				256.898681640625,
				0.9889307022094727,
				115.3652572631836
			],
			"min":[
				-151.14089965820312,
				-243.01187133789062,
				-292.67431640625
			],
			"type":"VEC3"
		},
		{
			"bufferView":2,
			"componentType":5126,
			"count":6478,
			"type":"VEC2"
		},
		{
			"bufferView":3,
			"componentType":5126,
			"count":6478,
			"type":"VEC2"
		},
		{
			"bufferView":4,
			"componentType":5126,
			"count":6478,
			"type":"VEC2"
		},
		{
			"bufferView":5,
			"componentType":5126,
			"count":6478,
			"type":"VEC2"
		},
		{
			"bufferView":6,
			"componentType":5126,
			"count":6478,
			"type":"VEC2"
		},
		{
			"bufferView":7,
			"componentType":5126,
			"count":6478,
			"type":"VEC2"
		},
		{
			"bufferView":8,
			"componentType":5126,
			"count":6478,
			"type":"VEC3"
		},
		{
			"bufferView":9,
			"componentType":5123,
			"count":14622,
			"type":"SCALAR"
		},
		{
			"bufferView":10,
			"componentType":5126,
			"count":25,
			"max":[
				0.8333333333333334
			],
			"min":[
				0.03333333333333333
			],
			"type":"SCALAR"
		},
		{
			"bufferView":11,
			"componentType":5126,
			"count":25,
			"type":"VEC3"
		},
		{
			"bufferView":12,
			"componentType":5126,
			"count":25,
			"type":"VEC4"
		},
		{
			"bufferView":13,
			"componentType":5126,
			"count":25,
			"type":"VEC3"
		}
	],
	"bufferViews":[
		{
			"buffer":0,
			"byteLength":51824,
			"byteOffset":0,
			"target":34962
		},
		{
			"buffer":0,
			"byteLength":77736,
			"byteOffset":51824,
			"target":34962
		},
		{
			"buffer":0,
			"byteLength":51824,
			"byteOffset":129560,
			"target":34962
		},
		{
			"buffer":0,
			"byteLength":51824,
			"byteOffset":181384,
			"target":34962
		},
		{
			"buffer":0,
			"byteLength":51824,
			"byteOffset":233208,
			"target":34962
		},
		{
			"buffer":0,
			"byteLength":51824,
			"byteOffset":285032,
			"target":34962
		},
		{
			"buffer":0,
			"byteLength":51824,
			"byteOffset":336856,
			"target":34962
		},
		{
			"buffer":0,
			"byteLength":51824,
			"byteOffset":388680,
			"target":34962
		},
		{
			"buffer":0,
			"byteLength":77736,
			"byteOffset":440504,
			"target":34962
		},
		{
			"buffer":0,
			"byteLength":29244,
			"byteOffset":518240,
			"target":34963
		},
		{
			"buffer":0,
			"byteLength":100,
			"byteOffset":547484
		},
		{
			"buffer":0,
			"byteLength":300,
			"byteOffset":547584
		},
		{
			"buffer":0,
			"byteLength":400,
			"byteOffset":547884
		},
		{
			"buffer":0,
			"byteLength":300,
			"byteOffset":548284
		}
	],
	"buffers":[
		{
			"byteLength":548584,
			"uri":"buildings.bin"
		}
	]
}
