{
	"asset":{
		"generator":"Khronos glTF Blender I/O v3.5.30",
		"version":"2.0"
	},
	"extensionsUsed":[
		"KHR_materials_specular",
		"KHR_materials_ior"
	],
	"scene":1,
	"scenes":[
		{
			"name":"Scene"
		},
		{
			"name":"Scene.001",
			"nodes":[
				0,
				1
			]
		},
		{
			"name":"Scene.002",
			"nodes":[
				2
			]
		}
	],
	"nodes":[
		{
			"mesh":0,
			"name":"bottle"
		},
		{
			"mesh":1,
			"name":"outline"
		},
		{
			"mesh":2,
			"name":"portal"
		}
	],
	"animations":[
		{
			"channels":[
				{
					"sampler":0,
					"target":{
						"node":0,
						"path":"translation"
					}
				},
				{
					"sampler":1,
					"target":{
						"node":0,
						"path":"rotation"
					}
				},
				{
					"sampler":2,
					"target":{
						"node":0,
						"path":"scale"
					}
				}
			],
			"name":"bottle",
			"samplers":[
				{
					"input":16,
					"interpolation":"LINEAR",
					"output":17
				},
				{
					"input":16,
					"interpolation":"LINEAR",
					"output":18
				},
				{
					"input":16,
					"interpolation":"LINEAR",
					"output":19
				}
			]
		},
		{
			"channels":[
				{
					"sampler":0,
					"target":{
						"node":1,
						"path":"translation"
					}
				},
				{
					"sampler":1,
					"target":{
						"node":1,
						"path":"rotation"
					}
				},
				{
					"sampler":2,
					"target":{
						"node":1,
						"path":"scale"
					}
				}
			],
			"name":"outline",
			"samplers":[
				{
					"input":16,
					"interpolation":"LINEAR",
					"output":20
				},
				{
					"input":16,
					"interpolation":"LINEAR",
					"output":21
				},
				{
					"input":16,
					"interpolation":"LINEAR",
					"output":22
				}
			]
		},
		{
			"channels":[
				{
					"sampler":0,
					"target":{
						"node":2,
						"path":"translation"
					}
				},
				{
					"sampler":1,
					"target":{
						"node":2,
						"path":"rotation"
					}
				},
				{
					"sampler":2,
					"target":{
						"node":2,
						"path":"scale"
					}
				}
			],
			"name":"portal",
			"samplers":[
				{
					"input":16,
					"interpolation":"LINEAR",
					"output":23
				},
				{
					"input":16,
					"interpolation":"LINEAR",
					"output":24
				},
				{
					"input":16,
					"interpolation":"LINEAR",
					"output":25
				}
			]
		}
	],
	"materials":[
		{
			"doubleSided":true,
			"name":"cap",
			"pbrMetallicRoughness":{
				"baseColorFactor":[
					0.008023139089345932,
					0.02028852514922619,
					0.06301000714302063,
					1
				],
				"metallicFactor":0,
				"roughnessFactor":0.5
			}
		},
		{
			"extensions":{
				"KHR_materials_specular":{
					"specularColorFactor":[
						2.371357614441398,
						2.371357614441398,
						2.371357614441398
					]
				},
				"KHR_materials_ior":{
					"ior":1.4500000476837158
				}
			},
			"name":"outline",
			"pbrMetallicRoughness":{
				"baseColorFactor":[
					0,
					0,
					0,
					1
				],
				"roughnessFactor":0.5527864098548889
			}
		},
		{
			"doubleSided":true,
			"name":"portal",
			"pbrMetallicRoughness":{
				"baseColorFactor":[
					0.800000011920929,
					0.800000011920929,
					0.800000011920929,
					1
				],
				"metallicFactor":0,
				"roughnessFactor":0.5
			}
		}
	],
	"meshes":[
		{
			"name":"BezierCircle.003",
			"primitives":[
				{
					"attributes":{
						"COLOR_0":0,
						"POSITION":1,
						"TEXCOORD_0":2,
						"TEXCOORD_1":3,
						"NORMAL":4
					},
					"indices":5,
					"material":0
				}
			]
		},
		{
			"name":"mud.002",
			"primitives":[
				{
					"attributes":{
						"COLOR_0":6,
						"POSITION":7,
						"TEXCOORD_0":8,
						"TEXCOORD_1":9,
						"NORMAL":10
					},
					"indices":11,
					"material":1
				}
			]
		},
		{
			"name":"Plane.020",
			"primitives":[
				{
					"attributes":{
						"POSITION":12,
						"TEXCOORD_0":13,
						"NORMAL":14
					},
					"indices":15,
					"material":2
				}
			]
		}
	],
	"accessors":[
		{
			"bufferView":0,
			"componentType":5123,
			"count":8429,
			"normalized":true,
			"type":"VEC4"
		},
		{
			"bufferView":1,
			"componentType":5126,
			"count":8429,
			"max":[
				2.2160212993621826,
				3.507261276245117,
				1.733034610748291
			],
			"min":[
				-2.9950430393218994,
				-3.6741559505462646,
				-3.9270737171173096
			],
			"type":"VEC3"
		},
		{
			"bufferView":2,
			"componentType":5126,
			"count":8429,
			"type":"VEC2"
		},
		{
			"bufferView":3,
			"componentType":5126,
			"count":8429,
			"type":"VEC2"
		},
		{
			"bufferView":4,
			"componentType":5126,
			"count":8429,
			"type":"VEC3"
		},
		{
			"bufferView":5,
			"componentType":5123,
			"count":19422,
			"type":"SCALAR"
		},
		{
			"bufferView":6,
			"componentType":5123,
			"count":6197,
			"normalized":true,
			"type":"VEC4"
		},
		{
			"bufferView":7,
			"componentType":5126,
			"count":6197,
			"max":[
				2.2855985164642334,
				3.6121630668640137,
				1.84124755859375
			],
			"min":[
				-3.071768283843994,
				-3.7715601921081543,
				-3.993218421936035
			],
			"type":"VEC3"
		},
		{
			"bufferView":8,
			"componentType":5126,
			"count":6197,
			"type":"VEC2"
		},
		{
			"bufferView":9,
			"componentType":5126,
			"count":6197,
			"type":"VEC2"
		},
		{
			"bufferView":10,
			"componentType":5126,
			"count":6197,
			"type":"VEC3"
		},
		{
			"bufferView":11,
			"componentType":5123,
			"count":11010,
			"type":"SCALAR"
		},
		{
			"bufferView":12,
			"componentType":5126,
			"count":4,
			"max":[
				12.023582458496094,
				0.9862228631973267,
				9.017685890197754
			],
			"min":[
				-12.023580551147461,
				0.9862136840820312,
				-9.017685890197754
			],
			"type":"VEC3"
		},
		{
			"bufferView":13,
			"componentType":5126,
			"count":4,
			"type":"VEC2"
		},
		{
			"bufferView":14,
			"componentType":5126,
			"count":4,
			"type":"VEC3"
		},
		{
			"bufferView":15,
			"componentType":5123,
			"count":6,
			"type":"SCALAR"
		},
		{
			"bufferView":16,
			"componentType":5126,
			"count":25,
			"max":[
				0.8333333333333334
			],
			"min":[
				0.03333333333333333
			],
			"type":"SCALAR"
		},
		{
			"bufferView":17,
			"componentType":5126,
			"count":25,
			"type":"VEC3"
		},
		{
			"bufferView":18,
			"componentType":5126,
			"count":25,
			"type":"VEC4"
		},
		{
			"bufferView":19,
			"componentType":5126,
			"count":25,
			"type":"VEC3"
		},
		{
			"bufferView":20,
			"componentType":5126,
			"count":25,
			"type":"VEC3"
		},
		{
			"bufferView":21,
			"componentType":5126,
			"count":25,
			"type":"VEC4"
		},
		{
			"bufferView":22,
			"componentType":5126,
			"count":25,
			"type":"VEC3"
		},
		{
			"bufferView":23,
			"componentType":5126,
			"count":25,
			"type":"VEC3"
		},
		{
			"bufferView":24,
			"componentType":5126,
			"count":25,
			"type":"VEC4"
		},
		{
			"bufferView":25,
			"componentType":5126,
			"count":25,
			"type":"VEC3"
		}
	],
	"bufferViews":[
		{
			"buffer":0,
			"byteLength":67432,
			"byteOffset":0,
			"target":34962
		},
		{
			"buffer":0,
			"byteLength":101148,
			"byteOffset":67432,
			"target":34962
		},
		{
			"buffer":0,
			"byteLength":67432,
			"byteOffset":168580,
			"target":34962
		},
		{
			"buffer":0,
			"byteLength":67432,
			"byteOffset":236012,
			"target":34962
		},
		{
			"buffer":0,
			"byteLength":101148,
			"byteOffset":303444,
			"target":34962
		},
		{
			"buffer":0,
			"byteLength":38844,
			"byteOffset":404592,
			"target":34963
		},
		{
			"buffer":0,
			"byteLength":49576,
			"byteOffset":443436,
			"target":34962
		},
		{
			"buffer":0,
			"byteLength":74364,
			"byteOffset":493012,
			"target":34962
		},
		{
			"buffer":0,
			"byteLength":49576,
			"byteOffset":567376,
			"target":34962
		},
		{
			"buffer":0,
			"byteLength":49576,
			"byteOffset":616952,
			"target":34962
		},
		{
			"buffer":0,
			"byteLength":74364,
			"byteOffset":666528,
			"target":34962
		},
		{
			"buffer":0,
			"byteLength":22020,
			"byteOffset":740892,
			"target":34963
		},
		{
			"buffer":0,
			"byteLength":48,
			"byteOffset":762912,
			"target":34962
		},
		{
			"buffer":0,
			"byteLength":32,
			"byteOffset":762960,
			"target":34962
		},
		{
			"buffer":0,
			"byteLength":48,
			"byteOffset":762992,
			"target":34962
		},
		{
			"buffer":0,
			"byteLength":12,
			"byteOffset":763040,
			"target":34963
		},
		{
			"buffer":0,
			"byteLength":100,
			"byteOffset":763052
		},
		{
			"buffer":0,
			"byteLength":300,
			"byteOffset":763152
		},
		{
			"buffer":0,
			"byteLength":400,
			"byteOffset":763452
		},
		{
			"buffer":0,
			"byteLength":300,
			"byteOffset":763852
		},
		{
			"buffer":0,
			"byteLength":300,
			"byteOffset":764152
		},
		{
			"buffer":0,
			"byteLength":400,
			"byteOffset":764452
		},
		{
			"buffer":0,
			"byteLength":300,
			"byteOffset":764852
		},
		{
			"buffer":0,
			"byteLength":300,
			"byteOffset":765152
		},
		{
			"buffer":0,
			"byteLength":400,
			"byteOffset":765452
		},
		{
			"buffer":0,
			"byteLength":300,
			"byteOffset":765852
		}
	],
	"buffers":[
		{
			"byteLength":766152,
			"uri":"ink.bin"
		}
	]
}
