{
	"asset":{
		"generator":"Khronos glTF Blender I/O v3.5.30",
		"version":"2.0"
	},
	"extensionsUsed":[
		"KHR_materials_specular",
		"KHR_materials_ior"
	],
	"scene":1,
	"scenes":[
		{
			"name":"Scene"
		},
		{
			"name":"Scene.001",
			"nodes":[
				0,
				1
			]
		}
	],
	"nodes":[
		{
			"mesh":0,
			"name":"bottle"
		},
		{
			"mesh":1,
			"name":"outline"
		}
	],
	"animations":[
		{
			"channels":[
				{
					"sampler":0,
					"target":{
						"node":0,
						"path":"translation"
					}
				},
				{
					"sampler":1,
					"target":{
						"node":0,
						"path":"rotation"
					}
				},
				{
					"sampler":2,
					"target":{
						"node":0,
						"path":"scale"
					}
				}
			],
			"name":"bottle",
			"samplers":[
				{
					"input":11,
					"interpolation":"LINEAR",
					"output":12
				},
				{
					"input":11,
					"interpolation":"LINEAR",
					"output":13
				},
				{
					"input":11,
					"interpolation":"LINEAR",
					"output":14
				}
			]
		},
		{
			"channels":[
				{
					"sampler":0,
					"target":{
						"node":1,
						"path":"translation"
					}
				},
				{
					"sampler":1,
					"target":{
						"node":1,
						"path":"rotation"
					}
				},
				{
					"sampler":2,
					"target":{
						"node":1,
						"path":"scale"
					}
				}
			],
			"name":"outline",
			"samplers":[
				{
					"input":11,
					"interpolation":"LINEAR",
					"output":15
				},
				{
					"input":11,
					"interpolation":"LINEAR",
					"output":16
				},
				{
					"input":11,
					"interpolation":"LINEAR",
					"output":17
				}
			]
		}
	],
	"materials":[
		{
			"doubleSided":true,
			"name":"cap",
			"pbrMetallicRoughness":{
				"baseColorFactor":[
					0.008023139089345932,
					0.02028852514922619,
					0.06301000714302063,
					1
				],
				"metallicFactor":0,
				"roughnessFactor":0.5
			}
		},
		{
			"extensions":{
				"KHR_materials_specular":{
					"specularColorFactor":[
						2.371357614441398,
						2.371357614441398,
						2.371357614441398
					]
				},
				"KHR_materials_ior":{
					"ior":1.4500000476837158
				}
			},
			"name":"outline",
			"pbrMetallicRoughness":{
				"baseColorFactor":[
					0,
					0,
					0,
					1
				],
				"roughnessFactor":0.5527864098548889
			}
		}
	],
	"meshes":[
		{
			"name":"BezierCircle.003",
			"primitives":[
				{
					"attributes":{
						"COLOR_0":0,
						"POSITION":1,
						"TEXCOORD_0":2,
						"TEXCOORD_1":3,
						"NORMAL":4
					},
					"indices":5,
					"material":0
				}
			]
		},
		{
			"name":"mud.002",
			"primitives":[
				{
					"attributes":{
						"POSITION":6,
						"TEXCOORD_0":7,
						"TEXCOORD_1":8,
						"NORMAL":9
					},
					"indices":10,
					"material":1
				}
			]
		}
	],
	"accessors":[
		{
			"bufferView":0,
			"componentType":5123,
			"count":8429,
			"normalized":true,
			"type":"VEC4"
		},
		{
			"bufferView":1,
			"componentType":5126,
			"count":8429,
			"max":[
				2.0415499210357666,
				1.564655065536499,
				2.1346545219421387
			],
			"min":[
				-2.759237766265869,
				-4.883852481842041,
				-3.884941339492798
			],
			"type":"VEC3"
		},
		{
			"bufferView":2,
			"componentType":5126,
			"count":8429,
			"type":"VEC2"
		},
		{
			"bufferView":3,
			"componentType":5126,
			"count":8429,
			"type":"VEC2"
		},
		{
			"bufferView":4,
			"componentType":5126,
			"count":8429,
			"type":"VEC3"
		},
		{
			"bufferView":5,
			"componentType":5123,
			"count":19422,
			"type":"SCALAR"
		},
		{
			"bufferView":6,
			"componentType":5126,
			"count":6197,
			"max":[
				2.105648994445801,
				1.6577718257904053,
				2.2343406677246094
			],
			"min":[
				-2.8299221992492676,
				-4.971231460571289,
				-3.944887399673462
			],
			"type":"VEC3"
		},
		{
			"bufferView":7,
			"componentType":5126,
			"count":6197,
			"type":"VEC2"
		},
		{
			"bufferView":8,
			"componentType":5126,
			"count":6197,
			"type":"VEC2"
		},
		{
			"bufferView":9,
			"componentType":5126,
			"count":6197,
			"type":"VEC3"
		},
		{
			"bufferView":10,
			"componentType":5123,
			"count":11010,
			"type":"SCALAR"
		},
		{
			"bufferView":11,
			"componentType":5126,
			"count":287,
			"max":[
				9.566666666666666
			],
			"min":[
				0.03333333333333333
			],
			"type":"SCALAR"
		},
		{
			"bufferView":12,
			"componentType":5126,
			"count":287,
			"type":"VEC3"
		},
		{
			"bufferView":13,
			"componentType":5126,
			"count":287,
			"type":"VEC4"
		},
		{
			"bufferView":14,
			"componentType":5126,
			"count":287,
			"type":"VEC3"
		},
		{
			"bufferView":15,
			"componentType":5126,
			"count":287,
			"type":"VEC3"
		},
		{
			"bufferView":16,
			"componentType":5126,
			"count":287,
			"type":"VEC4"
		},
		{
			"bufferView":17,
			"componentType":5126,
			"count":287,
			"type":"VEC3"
		}
	],
	"bufferViews":[
		{
			"buffer":0,
			"byteLength":67432,
			"byteOffset":0,
			"target":34962
		},
		{
			"buffer":0,
			"byteLength":101148,
			"byteOffset":67432,
			"target":34962
		},
		{
			"buffer":0,
			"byteLength":67432,
			"byteOffset":168580,
			"target":34962
		},
		{
			"buffer":0,
			"byteLength":67432,
			"byteOffset":236012,
			"target":34962
		},
		{
			"buffer":0,
			"byteLength":101148,
			"byteOffset":303444,
			"target":34962
		},
		{
			"buffer":0,
			"byteLength":38844,
			"byteOffset":404592,
			"target":34963
		},
		{
			"buffer":0,
			"byteLength":74364,
			"byteOffset":443436,
			"target":34962
		},
		{
			"buffer":0,
			"byteLength":49576,
			"byteOffset":517800,
			"target":34962
		},
		{
			"buffer":0,
			"byteLength":49576,
			"byteOffset":567376,
			"target":34962
		},
		{
			"buffer":0,
			"byteLength":74364,
			"byteOffset":616952,
			"target":34962
		},
		{
			"buffer":0,
			"byteLength":22020,
			"byteOffset":691316,
			"target":34963
		},
		{
			"buffer":0,
			"byteLength":1148,
			"byteOffset":713336
		},
		{
			"buffer":0,
			"byteLength":3444,
			"byteOffset":714484
		},
		{
			"buffer":0,
			"byteLength":4592,
			"byteOffset":717928
		},
		{
			"buffer":0,
			"byteLength":3444,
			"byteOffset":722520
		},
		{
			"buffer":0,
			"byteLength":3444,
			"byteOffset":725964
		},
		{
			"buffer":0,
			"byteLength":4592,
			"byteOffset":729408
		},
		{
			"buffer":0,
			"byteLength":3444,
			"byteOffset":734000
		}
	],
	"buffers":[
		{
			"byteLength":737444,
			"uri":"ink.bin"
		}
	]
}
