{
	"asset":{
		"generator":"Khronos glTF Blender I/O v3.5.30",
		"version":"2.0"
	},
	"extensionsUsed":[
		"KHR_materials_specular",
		"KHR_materials_ior"
	],
	"scene":1,
	"scenes":[
		{
			"name":"Scene",
			"nodes":[
				0,
				1
			]
		},
		{
			"name":"Scene.001",
			"nodes":[
				2,
				3
			]
		}
	],
	"nodes":[
		{
			"mesh":0,
			"name":"outline.001"
		},
		{
			"mesh":1,
			"name":"board"
		},
		{
			"mesh":2,
			"name":"bottle"
		},
		{
			"mesh":3,
			"name":"outline"
		}
	],
	"animations":[
		{
			"channels":[
				{
					"sampler":0,
					"target":{
						"node":0,
						"path":"translation"
					}
				},
				{
					"sampler":1,
					"target":{
						"node":0,
						"path":"rotation"
					}
				},
				{
					"sampler":2,
					"target":{
						"node":0,
						"path":"scale"
					}
				}
			],
			"name":"outline.001",
			"samplers":[
				{
					"input":22,
					"interpolation":"LINEAR",
					"output":23
				},
				{
					"input":22,
					"interpolation":"LINEAR",
					"output":24
				},
				{
					"input":22,
					"interpolation":"LINEAR",
					"output":25
				}
			]
		},
		{
			"channels":[
				{
					"sampler":0,
					"target":{
						"node":1,
						"path":"translation"
					}
				},
				{
					"sampler":1,
					"target":{
						"node":1,
						"path":"rotation"
					}
				},
				{
					"sampler":2,
					"target":{
						"node":1,
						"path":"scale"
					}
				}
			],
			"name":"board",
			"samplers":[
				{
					"input":22,
					"interpolation":"LINEAR",
					"output":26
				},
				{
					"input":22,
					"interpolation":"LINEAR",
					"output":27
				},
				{
					"input":22,
					"interpolation":"LINEAR",
					"output":28
				}
			]
		},
		{
			"channels":[
				{
					"sampler":0,
					"target":{
						"node":2,
						"path":"translation"
					}
				},
				{
					"sampler":1,
					"target":{
						"node":2,
						"path":"rotation"
					}
				},
				{
					"sampler":2,
					"target":{
						"node":2,
						"path":"scale"
					}
				}
			],
			"name":"bottle",
			"samplers":[
				{
					"input":29,
					"interpolation":"LINEAR",
					"output":30
				},
				{
					"input":29,
					"interpolation":"LINEAR",
					"output":31
				},
				{
					"input":29,
					"interpolation":"LINEAR",
					"output":32
				}
			]
		},
		{
			"channels":[
				{
					"sampler":0,
					"target":{
						"node":3,
						"path":"translation"
					}
				},
				{
					"sampler":1,
					"target":{
						"node":3,
						"path":"rotation"
					}
				},
				{
					"sampler":2,
					"target":{
						"node":3,
						"path":"scale"
					}
				}
			],
			"name":"outline",
			"samplers":[
				{
					"input":29,
					"interpolation":"LINEAR",
					"output":33
				},
				{
					"input":29,
					"interpolation":"LINEAR",
					"output":34
				},
				{
					"input":29,
					"interpolation":"LINEAR",
					"output":35
				}
			]
		}
	],
	"materials":[
		{
			"extensions":{
				"KHR_materials_specular":{
					"specularColorFactor":[
						2.371357614441398,
						2.371357614441398,
						2.371357614441398
					]
				},
				"KHR_materials_ior":{
					"ior":1.4500000476837158
				}
			},
			"name":"outline",
			"pbrMetallicRoughness":{
				"baseColorFactor":[
					0,
					0,
					0,
					1
				],
				"roughnessFactor":0.5527864098548889
			}
		},
		{
			"doubleSided":true,
			"name":"board",
			"pbrMetallicRoughness":{
				"baseColorFactor":[
					0.800000011920929,
					0.800000011920929,
					0.800000011920929,
					1
				],
				"metallicFactor":0,
				"roughnessFactor":0.5
			}
		},
		{
			"doubleSided":true,
			"name":"cap",
			"pbrMetallicRoughness":{
				"baseColorFactor":[
					0.008023139089345932,
					0.02028852514922619,
					0.06301000714302063,
					1
				],
				"metallicFactor":0,
				"roughnessFactor":0.5
			}
		}
	],
	"meshes":[
		{
			"name":"Sphere.004",
			"primitives":[
				{
					"attributes":{
						"COLOR_0":0,
						"POSITION":1,
						"TEXCOORD_0":2,
						"NORMAL":3
					},
					"indices":4,
					"material":0
				}
			]
		},
		{
			"name":"element.086",
			"primitives":[
				{
					"attributes":{
						"COLOR_0":5,
						"POSITION":6,
						"TEXCOORD_0":7,
						"NORMAL":8
					},
					"indices":9,
					"material":1
				}
			]
		},
		{
			"name":"BezierCircle.003",
			"primitives":[
				{
					"attributes":{
						"COLOR_0":10,
						"POSITION":11,
						"TEXCOORD_0":12,
						"TEXCOORD_1":13,
						"NORMAL":14
					},
					"indices":15,
					"material":2
				}
			]
		},
		{
			"name":"mud.002",
			"primitives":[
				{
					"attributes":{
						"COLOR_0":16,
						"POSITION":17,
						"TEXCOORD_0":18,
						"TEXCOORD_1":19,
						"NORMAL":20
					},
					"indices":21,
					"material":0
				}
			]
		}
	],
	"accessors":[
		{
			"bufferView":0,
			"componentType":5123,
			"count":8423,
			"normalized":true,
			"type":"VEC4"
		},
		{
			"bufferView":1,
			"componentType":5126,
			"count":8423,
			"max":[
				7.4921746253967285,
				1.7758921384811401,
				5.963454246520996
			],
			"min":[
				-7.492175102233887,
				-3.0910396575927734,
				-5.963454723358154
			],
			"type":"VEC3"
		},
		{
			"bufferView":2,
			"componentType":5126,
			"count":8423,
			"type":"VEC2"
		},
		{
			"bufferView":3,
			"componentType":5126,
			"count":8423,
			"type":"VEC3"
		},
		{
			"bufferView":4,
			"componentType":5123,
			"count":30537,
			"type":"SCALAR"
		},
		{
			"bufferView":5,
			"componentType":5123,
			"count":8269,
			"normalized":true,
			"type":"VEC4"
		},
		{
			"bufferView":6,
			"componentType":5126,
			"count":8269,
			"max":[
				7.249112129211426,
				1.6316055059432983,
				5.764577865600586
			],
			"min":[
				-7.249112606048584,
				-3.0064868927001953,
				-5.764577865600586
			],
			"type":"VEC3"
		},
		{
			"bufferView":7,
			"componentType":5126,
			"count":8269,
			"type":"VEC2"
		},
		{
			"bufferView":8,
			"componentType":5126,
			"count":8269,
			"type":"VEC3"
		},
		{
			"bufferView":9,
			"componentType":5123,
			"count":30549,
			"type":"SCALAR"
		},
		{
			"bufferView":10,
			"componentType":5123,
			"count":8429,
			"normalized":true,
			"type":"VEC4"
		},
		{
			"bufferView":11,
			"componentType":5126,
			"count":8429,
			"max":[
				2.0415499210357666,
				3.1501426696777344,
				2.1346545219421387
			],
			"min":[
				-2.759237766265869,
				-3.2983646392822266,
				-3.884941339492798
			],
			"type":"VEC3"
		},
		{
			"bufferView":12,
			"componentType":5126,
			"count":8429,
			"type":"VEC2"
		},
		{
			"bufferView":13,
			"componentType":5126,
			"count":8429,
			"type":"VEC2"
		},
		{
			"bufferView":14,
			"componentType":5126,
			"count":8429,
			"type":"VEC3"
		},
		{
			"bufferView":15,
			"componentType":5123,
			"count":19422,
			"type":"SCALAR"
		},
		{
			"bufferView":16,
			"componentType":5123,
			"count":6197,
			"normalized":true,
			"type":"VEC4"
		},
		{
			"bufferView":17,
			"componentType":5126,
			"count":6197,
			"max":[
				2.105648994445801,
				3.2432594299316406,
				2.2343406677246094
			],
			"min":[
				-2.8299221992492676,
				-3.3857436180114746,
				-3.944887399673462
			],
			"type":"VEC3"
		},
		{
			"bufferView":18,
			"componentType":5126,
			"count":6197,
			"type":"VEC2"
		},
		{
			"bufferView":19,
			"componentType":5126,
			"count":6197,
			"type":"VEC2"
		},
		{
			"bufferView":20,
			"componentType":5126,
			"count":6197,
			"type":"VEC3"
		},
		{
			"bufferView":21,
			"componentType":5123,
			"count":11010,
			"type":"SCALAR"
		},
		{
			"bufferView":22,
			"componentType":5126,
			"count":2,
			"max":[
				0.08
			],
			"min":[
				0.04
			],
			"type":"SCALAR"
		},
		{
			"bufferView":23,
			"componentType":5126,
			"count":2,
			"type":"VEC3"
		},
		{
			"bufferView":24,
			"componentType":5126,
			"count":2,
			"type":"VEC4"
		},
		{
			"bufferView":25,
			"componentType":5126,
			"count":2,
			"type":"VEC3"
		},
		{
			"bufferView":26,
			"componentType":5126,
			"count":2,
			"type":"VEC3"
		},
		{
			"bufferView":27,
			"componentType":5126,
			"count":2,
			"type":"VEC4"
		},
		{
			"bufferView":28,
			"componentType":5126,
			"count":2,
			"type":"VEC3"
		},
		{
			"bufferView":29,
			"componentType":5126,
			"count":2,
			"max":[
				0.06666666666666667
			],
			"min":[
				0.03333333333333333
			],
			"type":"SCALAR"
		},
		{
			"bufferView":30,
			"componentType":5126,
			"count":2,
			"type":"VEC3"
		},
		{
			"bufferView":31,
			"componentType":5126,
			"count":2,
			"type":"VEC4"
		},
		{
			"bufferView":32,
			"componentType":5126,
			"count":2,
			"type":"VEC3"
		},
		{
			"bufferView":33,
			"componentType":5126,
			"count":2,
			"type":"VEC3"
		},
		{
			"bufferView":34,
			"componentType":5126,
			"count":2,
			"type":"VEC4"
		},
		{
			"bufferView":35,
			"componentType":5126,
			"count":2,
			"type":"VEC3"
		}
	],
	"bufferViews":[
		{
			"buffer":0,
			"byteLength":67384,
			"byteOffset":0,
			"target":34962
		},
		{
			"buffer":0,
			"byteLength":101076,
			"byteOffset":67384,
			"target":34962
		},
		{
			"buffer":0,
			"byteLength":67384,
			"byteOffset":168460,
			"target":34962
		},
		{
			"buffer":0,
			"byteLength":101076,
			"byteOffset":235844,
			"target":34962
		},
		{
			"buffer":0,
			"byteLength":61074,
			"byteOffset":336920,
			"target":34963
		},
		{
			"buffer":0,
			"byteLength":66152,
			"byteOffset":397996,
			"target":34962
		},
		{
			"buffer":0,
			"byteLength":99228,
			"byteOffset":464148,
			"target":34962
		},
		{
			"buffer":0,
			"byteLength":66152,
			"byteOffset":563376,
			"target":34962
		},
		{
			"buffer":0,
			"byteLength":99228,
			"byteOffset":629528,
			"target":34962
		},
		{
			"buffer":0,
			"byteLength":61098,
			"byteOffset":728756,
			"target":34963
		},
		{
			"buffer":0,
			"byteLength":67432,
			"byteOffset":789856,
			"target":34962
		},
		{
			"buffer":0,
			"byteLength":101148,
			"byteOffset":857288,
			"target":34962
		},
		{
			"buffer":0,
			"byteLength":67432,
			"byteOffset":958436,
			"target":34962
		},
		{
			"buffer":0,
			"byteLength":67432,
			"byteOffset":1025868,
			"target":34962
		},
		{
			"buffer":0,
			"byteLength":101148,
			"byteOffset":1093300,
			"target":34962
		},
		{
			"buffer":0,
			"byteLength":38844,
			"byteOffset":1194448,
			"target":34963
		},
		{
			"buffer":0,
			"byteLength":49576,
			"byteOffset":1233292,
			"target":34962
		},
		{
			"buffer":0,
			"byteLength":74364,
			"byteOffset":1282868,
			"target":34962
		},
		{
			"buffer":0,
			"byteLength":49576,
			"byteOffset":1357232,
			"target":34962
		},
		{
			"buffer":0,
			"byteLength":49576,
			"byteOffset":1406808,
			"target":34962
		},
		{
			"buffer":0,
			"byteLength":74364,
			"byteOffset":1456384,
			"target":34962
		},
		{
			"buffer":0,
			"byteLength":22020,
			"byteOffset":1530748,
			"target":34963
		},
		{
			"buffer":0,
			"byteLength":8,
			"byteOffset":1552768
		},
		{
			"buffer":0,
			"byteLength":24,
			"byteOffset":1552776
		},
		{
			"buffer":0,
			"byteLength":32,
			"byteOffset":1552800
		},
		{
			"buffer":0,
			"byteLength":24,
			"byteOffset":1552832
		},
		{
			"buffer":0,
			"byteLength":24,
			"byteOffset":1552856
		},
		{
			"buffer":0,
			"byteLength":32,
			"byteOffset":1552880
		},
		{
			"buffer":0,
			"byteLength":24,
			"byteOffset":1552912
		},
		{
			"buffer":0,
			"byteLength":8,
			"byteOffset":1552936
		},
		{
			"buffer":0,
			"byteLength":24,
			"byteOffset":1552944
		},
		{
			"buffer":0,
			"byteLength":32,
			"byteOffset":1552968
		},
		{
			"buffer":0,
			"byteLength":24,
			"byteOffset":1553000
		},
		{
			"buffer":0,
			"byteLength":24,
			"byteOffset":1553024
		},
		{
			"buffer":0,
			"byteLength":32,
			"byteOffset":1553048
		},
		{
			"buffer":0,
			"byteLength":24,
			"byteOffset":1553080
		}
	],
	"buffers":[
		{
			"byteLength":1553104,
			"uri":"ink.bin"
		}
	]
}
