{
	"asset":{
		"generator":"Khronos glTF Blender I/O v3.5.30",
		"version":"2.0"
	},
	"scene":0,
	"scenes":[
		{
			"name":"Scene",
			"nodes":[
				0
			]
		}
	],
	"nodes":[
		{
			"mesh":0,
			"name":"light1Outline"
		}
	],
	"meshes":[
		{
			"name":"Sphere.004",
			"primitives":[
				{
					"attributes":{
						"COLOR_0":0,
						"POSITION":1,
						"TEXCOORD_0":2,
						"NORMAL":3
					},
					"indices":4
				}
			]
		}
	],
	"accessors":[
		{
			"bufferView":0,
			"componentType":5123,
			"count":6534,
			"normalized":true,
			"type":"VEC4"
		},
		{
			"bufferView":1,
			"componentType":5126,
			"count":6534,
			"max":[
				7.4921746253967285,
				1.7758921384811401,
				5.963454246520996
			],
			"min":[
				-7.492175102233887,
				-1.8003535270690918,
				-5.963454723358154
			],
			"type":"VEC3"
		},
		{
			"bufferView":2,
			"componentType":5126,
			"count":6534,
			"type":"VEC2"
		},
		{
			"bufferView":3,
			"componentType":5126,
			"count":6534,
			"type":"VEC3"
		},
		{
			"bufferView":4,
			"componentType":5123,
			"count":19866,
			"type":"SCALAR"
		}
	],
	"bufferViews":[
		{
			"buffer":0,
			"byteLength":52272,
			"byteOffset":0,
			"target":34962
		},
		{
			"buffer":0,
			"byteLength":78408,
			"byteOffset":52272,
			"target":34962
		},
		{
			"buffer":0,
			"byteLength":52272,
			"byteOffset":130680,
			"target":34962
		},
		{
			"buffer":0,
			"byteLength":78408,
			"byteOffset":182952,
			"target":34962
		},
		{
			"buffer":0,
			"byteLength":39732,
			"byteOffset":261360,
			"target":34963
		}
	],
	"buffers":[
		{
			"byteLength":301092,
			"uri":"data:application/octet-stream;base64,"
		}
	]
}
