{
	"asset":{
		"generator":"Khronos glTF Blender I/O v3.5.30",
		"version":"2.0"
	},
	"extensionsUsed":[
		"KHR_materials_specular",
		"KHR_materials_ior"
	],
	"scene":0,
	"scenes":[
		{
			"name":"Scene",
			"nodes":[
				0,
				1
			]
		}
	],
	"nodes":[
		{
			"mesh":0,
			"name":"outline"
		},
		{
			"mesh":1,
			"name":"board"
		}
	],
	"materials":[
		{
			"extensions":{
				"KHR_materials_specular":{
					"specularColorFactor":[
						2.371357614441398,
						2.371357614441398,
						2.371357614441398
					]
				},
				"KHR_materials_ior":{
					"ior":1.4500000476837158
				}
			},
			"name":"outline",
			"pbrMetallicRoughness":{
				"baseColorFactor":[
					0,
					0,
					0,
					1
				],
				"roughnessFactor":0.5527864098548889
			}
		},
		{
			"doubleSided":true,
			"name":"board",
			"pbrMetallicRoughness":{
				"baseColorFactor":[
					0.800000011920929,
					0.800000011920929,
					0.800000011920929,
					1
				],
				"metallicFactor":0,
				"roughnessFactor":0.5
			}
		}
	],
	"meshes":[
		{
			"name":"Sphere.004",
			"primitives":[
				{
					"attributes":{
						"COLOR_0":0,
						"POSITION":1,
						"TEXCOORD_0":2,
						"NORMAL":3
					},
					"indices":4,
					"material":0
				}
			]
		},
		{
			"name":"element.086",
			"primitives":[
				{
					"attributes":{
						"COLOR_0":5,
						"POSITION":6,
						"TEXCOORD_0":7,
						"NORMAL":8
					},
					"indices":9,
					"material":1
				}
			]
		}
	],
	"accessors":[
		{
			"bufferView":0,
			"componentType":5123,
			"count":8423,
			"normalized":true,
			"type":"VEC4"
		},
		{
			"bufferView":1,
			"componentType":5126,
			"count":8423,
			"max":[
				7.4921746253967285,
				1.7758921384811401,
				5.963454246520996
			],
			"min":[
				-7.492175102233887,
				-3.0910396575927734,
				-5.963454723358154
			],
			"type":"VEC3"
		},
		{
			"bufferView":2,
			"componentType":5126,
			"count":8423,
			"type":"VEC2"
		},
		{
			"bufferView":3,
			"componentType":5126,
			"count":8423,
			"type":"VEC3"
		},
		{
			"bufferView":4,
			"componentType":5123,
			"count":30537,
			"type":"SCALAR"
		},
		{
			"bufferView":5,
			"componentType":5123,
			"count":8269,
			"normalized":true,
			"type":"VEC4"
		},
		{
			"bufferView":6,
			"componentType":5126,
			"count":8269,
			"max":[
				7.249112129211426,
				1.6316055059432983,
				5.764577865600586
			],
			"min":[
				-7.249112606048584,
				-3.0064868927001953,
				-5.764577865600586
			],
			"type":"VEC3"
		},
		{
			"bufferView":7,
			"componentType":5126,
			"count":8269,
			"type":"VEC2"
		},
		{
			"bufferView":8,
			"componentType":5126,
			"count":8269,
			"type":"VEC3"
		},
		{
			"bufferView":9,
			"componentType":5123,
			"count":30549,
			"type":"SCALAR"
		}
	],
	"bufferViews":[
		{
			"buffer":0,
			"byteLength":67384,
			"byteOffset":0,
			"target":34962
		},
		{
			"buffer":0,
			"byteLength":101076,
			"byteOffset":67384,
			"target":34962
		},
		{
			"buffer":0,
			"byteLength":67384,
			"byteOffset":168460,
			"target":34962
		},
		{
			"buffer":0,
			"byteLength":101076,
			"byteOffset":235844,
			"target":34962
		},
		{
			"buffer":0,
			"byteLength":61074,
			"byteOffset":336920,
			"target":34963
		},
		{
			"buffer":0,
			"byteLength":66152,
			"byteOffset":397996,
			"target":34962
		},
		{
			"buffer":0,
			"byteLength":99228,
			"byteOffset":464148,
			"target":34962
		},
		{
			"buffer":0,
			"byteLength":66152,
			"byteOffset":563376,
			"target":34962
		},
		{
			"buffer":0,
			"byteLength":99228,
			"byteOffset":629528,
			"target":34962
		},
		{
			"buffer":0,
			"byteLength":61098,
			"byteOffset":728756,
			"target":34963
		}
	],
	"buffers":[
		{
			"byteLength":789856,
			"uri":"keyboard.bin"
		}
	]
}
