{
	"asset":{
		"generator":"Khronos glTF Blender I/O v3.5.30",
		"version":"2.0"
	},
	"scene":0,
	"scenes":[
		{
			"name":"Scene",
			"nodes":[
				0,
				1
			]
		}
	],
	"nodes":[
		{
			"mesh":0,
			"name":"board"
		},
		{
			"mesh":1,
			"name":"light1Outline"
		}
	],
	"meshes":[
		{
			"name":"Plane.004",
			"primitives":[
				{
					"attributes":{
						"COLOR_0":0,
						"POSITION":1,
						"TEXCOORD_0":2,
						"NORMAL":3
					},
					"indices":4
				}
			]
		},
		{
			"name":"Sphere.004",
			"primitives":[
				{
					"attributes":{
						"COLOR_0":5,
						"POSITION":6,
						"TEXCOORD_0":7,
						"NORMAL":8
					},
					"indices":9
				}
			]
		}
	],
	"accessors":[
		{
			"bufferView":0,
			"componentType":5123,
			"count":6534,
			"normalized":true,
			"type":"VEC4"
		},
		{
			"bufferView":1,
			"componentType":5126,
			"count":6534,
			"max":[
				7.249111652374268,
				1.6316053867340088,
				5.764577865600586
			],
			"min":[
				-7.249112129211426,
				-1.6316053867340088,
				-5.764577865600586
			],
			"type":"VEC3"
		},
		{
			"bufferView":2,
			"componentType":5126,
			"count":6534,
			"type":"VEC2"
		},
		{
			"bufferView":3,
			"componentType":5126,
			"count":6534,
			"type":"VEC3"
		},
		{
			"bufferView":4,
			"componentType":5123,
			"count":19866,
			"type":"SCALAR"
		},
		{
			"bufferView":5,
			"componentType":5123,
			"count":6534,
			"normalized":true,
			"type":"VEC4"
		},
		{
			"bufferView":6,
			"componentType":5126,
			"count":6534,
			"max":[
				7.4921746253967285,
				1.7758921384811401,
				5.963454246520996
			],
			"min":[
				-7.492175102233887,
				-1.8003535270690918,
				-5.963454723358154
			],
			"type":"VEC3"
		},
		{
			"bufferView":7,
			"componentType":5126,
			"count":6534,
			"type":"VEC2"
		},
		{
			"bufferView":8,
			"componentType":5126,
			"count":6534,
			"type":"VEC3"
		},
		{
			"bufferView":9,
			"componentType":5123,
			"count":19866,
			"type":"SCALAR"
		}
	],
	"bufferViews":[
		{
			"buffer":0,
			"byteLength":52272,
			"byteOffset":0,
			"target":34962
		},
		{
			"buffer":0,
			"byteLength":78408,
			"byteOffset":52272,
			"target":34962
		},
		{
			"buffer":0,
			"byteLength":52272,
			"byteOffset":130680,
			"target":34962
		},
		{
			"buffer":0,
			"byteLength":78408,
			"byteOffset":182952,
			"target":34962
		},
		{
			"buffer":0,
			"byteLength":39732,
			"byteOffset":261360,
			"target":34963
		},
		{
			"buffer":0,
			"byteLength":52272,
			"byteOffset":301092,
			"target":34962
		},
		{
			"buffer":0,
			"byteLength":78408,
			"byteOffset":353364,
			"target":34962
		},
		{
			"buffer":0,
			"byteLength":52272,
			"byteOffset":431772,
			"target":34962
		},
		{
			"buffer":0,
			"byteLength":78408,
			"byteOffset":484044,
			"target":34962
		},
		{
			"buffer":0,
			"byteLength":39732,
			"byteOffset":562452,
			"target":34963
		}
	],
	"buffers":[
		{
			"byteLength":602184,
			"uri":"data:application/octet-stream;base64,"
		}
	]
}
