{
	"asset":{
		"generator":"Khronos glTF Blender I/O v3.5.30",
		"version":"2.0"
	},
	"scene":2,
	"scenes":[
		{
			"name":"Scene"
		},
		{
			"name":"Scene.001"
		},
		{
			"name":"Scene.002",
			"nodes":[
				0
			]
		}
	],
	"nodes":[
		{
			"mesh":0,
			"name":"dirt"
		}
	],
	"animations":[
		{
			"channels":[
				{
					"sampler":0,
					"target":{
						"node":0,
						"path":"translation"
					}
				},
				{
					"sampler":1,
					"target":{
						"node":0,
						"path":"rotation"
					}
				},
				{
					"sampler":2,
					"target":{
						"node":0,
						"path":"scale"
					}
				}
			],
			"name":"dirt",
			"samplers":[
				{
					"input":10,
					"interpolation":"LINEAR",
					"output":11
				},
				{
					"input":10,
					"interpolation":"LINEAR",
					"output":12
				},
				{
					"input":10,
					"interpolation":"LINEAR",
					"output":13
				}
			]
		}
	],
	"materials":[
		{
			"doubleSided":true,
			"name":"buildings",
			"pbrMetallicRoughness":{
				"baseColorFactor":[
					0.800000011920929,
					0.800000011920929,
					0.800000011920929,
					1
				],
				"metallicFactor":0,
				"roughnessFactor":0.5
			}
		}
	],
	"meshes":[
		{
			"name":"Mesh.22561",
			"primitives":[
				{
					"attributes":{
						"COLOR_0":0,
						"POSITION":1,
						"TEXCOORD_0":2,
						"TEXCOORD_1":3,
						"TEXCOORD_2":4,
						"TEXCOORD_3":5,
						"TEXCOORD_4":6,
						"TEXCOORD_5":7,
						"NORMAL":8
					},
					"indices":9,
					"material":0
				}
			]
		}
	],
	"accessors":[
		{
			"bufferView":0,
			"componentType":5123,
			"count":1665,
			"normalized":true,
			"type":"VEC4"
		},
		{
			"bufferView":1,
			"componentType":5126,
			"count":1665,
			"max":[
				14.009651184082031,
				9.184488296508789,
				10.507237434387207
			],
			"min":[
				-14.009650230407715,
				-5.4834949878568295e-06,
				-10.507237434387207
			],
			"type":"VEC3"
		},
		{
			"bufferView":2,
			"componentType":5126,
			"count":1665,
			"type":"VEC2"
		},
		{
			"bufferView":3,
			"componentType":5126,
			"count":1665,
			"type":"VEC2"
		},
		{
			"bufferView":4,
			"componentType":5126,
			"count":1665,
			"type":"VEC2"
		},
		{
			"bufferView":5,
			"componentType":5126,
			"count":1665,
			"type":"VEC2"
		},
		{
			"bufferView":6,
			"componentType":5126,
			"count":1665,
			"type":"VEC2"
		},
		{
			"bufferView":7,
			"componentType":5126,
			"count":1665,
			"type":"VEC2"
		},
		{
			"bufferView":8,
			"componentType":5126,
			"count":1665,
			"type":"VEC3"
		},
		{
			"bufferView":9,
			"componentType":5123,
			"count":4680,
			"type":"SCALAR"
		},
		{
			"bufferView":10,
			"componentType":5126,
			"count":25,
			"max":[
				0.8333333333333334
			],
			"min":[
				0.03333333333333333
			],
			"type":"SCALAR"
		},
		{
			"bufferView":11,
			"componentType":5126,
			"count":25,
			"type":"VEC3"
		},
		{
			"bufferView":12,
			"componentType":5126,
			"count":25,
			"type":"VEC4"
		},
		{
			"bufferView":13,
			"componentType":5126,
			"count":25,
			"type":"VEC3"
		}
	],
	"bufferViews":[
		{
			"buffer":0,
			"byteLength":13320,
			"byteOffset":0,
			"target":34962
		},
		{
			"buffer":0,
			"byteLength":19980,
			"byteOffset":13320,
			"target":34962
		},
		{
			"buffer":0,
			"byteLength":13320,
			"byteOffset":33300,
			"target":34962
		},
		{
			"buffer":0,
			"byteLength":13320,
			"byteOffset":46620,
			"target":34962
		},
		{
			"buffer":0,
			"byteLength":13320,
			"byteOffset":59940,
			"target":34962
		},
		{
			"buffer":0,
			"byteLength":13320,
			"byteOffset":73260,
			"target":34962
		},
		{
			"buffer":0,
			"byteLength":13320,
			"byteOffset":86580,
			"target":34962
		},
		{
			"buffer":0,
			"byteLength":13320,
			"byteOffset":99900,
			"target":34962
		},
		{
			"buffer":0,
			"byteLength":19980,
			"byteOffset":113220,
			"target":34962
		},
		{
			"buffer":0,
			"byteLength":9360,
			"byteOffset":133200,
			"target":34963
		},
		{
			"buffer":0,
			"byteLength":100,
			"byteOffset":142560
		},
		{
			"buffer":0,
			"byteLength":300,
			"byteOffset":142660
		},
		{
			"buffer":0,
			"byteLength":400,
			"byteOffset":142960
		},
		{
			"buffer":0,
			"byteLength":300,
			"byteOffset":143360
		}
	],
	"buffers":[
		{
			"byteLength":143660,
			"uri":"windowgltf.bin"
		}
	]
}
