{
	"asset":{
		"generator":"Khronos glTF Blender I/O v3.5.30",
		"version":"2.0"
	},
	"extensionsUsed":[
		"KHR_materials_specular",
		"KHR_materials_ior"
	],
	"scene":2,
	"scenes":[
		{
			"name":"Scene"
		},
		{
			"name":"Scene.001"
		},
		{
			"name":"Scene.002",
			"nodes":[
				0
			]
		}
	],
	"nodes":[
		{
			"mesh":0,
			"name":"windowOutline"
		}
	],
	"animations":[
		{
			"channels":[
				{
					"sampler":0,
					"target":{
						"node":0,
						"path":"translation"
					}
				},
				{
					"sampler":1,
					"target":{
						"node":0,
						"path":"rotation"
					}
				},
				{
					"sampler":2,
					"target":{
						"node":0,
						"path":"scale"
					}
				}
			],
			"name":"windowOutline",
			"samplers":[
				{
					"input":5,
					"interpolation":"LINEAR",
					"output":6
				},
				{
					"input":5,
					"interpolation":"LINEAR",
					"output":7
				},
				{
					"input":5,
					"interpolation":"LINEAR",
					"output":8
				}
			]
		}
	],
	"materials":[
		{
			"extensions":{
				"KHR_materials_specular":{
					"specularColorFactor":[
						2.371357614441398,
						2.371357614441398,
						2.371357614441398
					]
				},
				"KHR_materials_ior":{
					"ior":1.4500000476837158
				}
			},
			"name":"outline",
			"pbrMetallicRoughness":{
				"baseColorFactor":[
					0,
					0,
					0,
					1
				],
				"roughnessFactor":0.5527864098548889
			}
		}
	],
	"meshes":[
		{
			"name":"Mesh.009",
			"primitives":[
				{
					"attributes":{
						"COLOR_0":0,
						"POSITION":1,
						"TEXCOORD_0":2,
						"NORMAL":3
					},
					"indices":4,
					"material":0
				}
			]
		}
	],
	"accessors":[
		{
			"bufferView":0,
			"componentType":5123,
			"count":1207,
			"normalized":true,
			"type":"VEC4"
		},
		{
			"bufferView":1,
			"componentType":5126,
			"count":1207,
			"max":[
				14.363204002380371,
				8.499170303344727,
				10.948296546936035
			],
			"min":[
				-14.363204002380371,
				-0.7181180715560913,
				-10.916417121887207
			],
			"type":"VEC3"
		},
		{
			"bufferView":2,
			"componentType":5126,
			"count":1207,
			"type":"VEC2"
		},
		{
			"bufferView":3,
			"componentType":5126,
			"count":1207,
			"type":"VEC3"
		},
		{
			"bufferView":4,
			"componentType":5123,
			"count":3564,
			"type":"SCALAR"
		},
		{
			"bufferView":5,
			"componentType":5126,
			"count":25,
			"max":[
				0.8333333333333334
			],
			"min":[
				0.03333333333333333
			],
			"type":"SCALAR"
		},
		{
			"bufferView":6,
			"componentType":5126,
			"count":25,
			"type":"VEC3"
		},
		{
			"bufferView":7,
			"componentType":5126,
			"count":25,
			"type":"VEC4"
		},
		{
			"bufferView":8,
			"componentType":5126,
			"count":25,
			"type":"VEC3"
		}
	],
	"bufferViews":[
		{
			"buffer":0,
			"byteLength":9656,
			"byteOffset":0,
			"target":34962
		},
		{
			"buffer":0,
			"byteLength":14484,
			"byteOffset":9656,
			"target":34962
		},
		{
			"buffer":0,
			"byteLength":9656,
			"byteOffset":24140,
			"target":34962
		},
		{
			"buffer":0,
			"byteLength":14484,
			"byteOffset":33796,
			"target":34962
		},
		{
			"buffer":0,
			"byteLength":7128,
			"byteOffset":48280,
			"target":34963
		},
		{
			"buffer":0,
			"byteLength":100,
			"byteOffset":55408
		},
		{
			"buffer":0,
			"byteLength":300,
			"byteOffset":55508
		},
		{
			"buffer":0,
			"byteLength":400,
			"byteOffset":55808
		},
		{
			"buffer":0,
			"byteLength":300,
			"byteOffset":56208
		}
	],
	"buffers":[
		{
			"byteLength":56508,
			"uri":"windowOutline.bin"
		}
	]
}
