{
	"asset":{
		"generator":"Khronos glTF Blender I/O v3.5.30",
		"version":"2.0"
	},
	"scene":2,
	"scenes":[
		{
			"name":"Scene"
		},
		{
			"name":"Scene.001"
		},
		{
			"name":"Scene.002",
			"nodes":[
				0
			]
		}
	],
	"nodes":[
		{
			"mesh":0,
			"name":"window"
		}
	],
	"animations":[
		{
			"channels":[
				{
					"sampler":0,
					"target":{
						"node":0,
						"path":"translation"
					}
				},
				{
					"sampler":1,
					"target":{
						"node":0,
						"path":"rotation"
					}
				},
				{
					"sampler":2,
					"target":{
						"node":0,
						"path":"scale"
					}
				}
			],
			"name":"window",
			"samplers":[
				{
					"input":11,
					"interpolation":"LINEAR",
					"output":12
				},
				{
					"input":11,
					"interpolation":"LINEAR",
					"output":13
				},
				{
					"input":11,
					"interpolation":"LINEAR",
					"output":14
				}
			]
		}
	],
	"materials":[
		{
			"doubleSided":true,
			"name":"window",
			"pbrMetallicRoughness":{
				"baseColorFactor":[
					0.800000011920929,
					0.800000011920929,
					0.800000011920929,
					1
				],
				"metallicFactor":0,
				"roughnessFactor":0.5
			}
		}
	],
	"meshes":[
		{
			"name":"Mesh.22584",
			"primitives":[
				{
					"attributes":{
						"COLOR_0":0,
						"POSITION":1,
						"TEXCOORD_0":2,
						"TEXCOORD_1":3,
						"TEXCOORD_2":4,
						"TEXCOORD_3":5,
						"TEXCOORD_4":6,
						"TEXCOORD_5":7,
						"TEXCOORD_6":8,
						"NORMAL":9
					},
					"indices":10,
					"material":0
				}
			]
		}
	],
	"accessors":[
		{
			"bufferView":0,
			"componentType":5123,
			"count":2278,
			"normalized":true,
			"type":"VEC4"
		},
		{
			"bufferView":1,
			"componentType":5126,
			"count":2278,
			"max":[
				14.009651184082031,
				8.284830093383789,
				10.507237434387207
			],
			"min":[
				-14.009650230407715,
				-0.570448637008667,
				-10.507237434387207
			],
			"type":"VEC3"
		},
		{
			"bufferView":2,
			"componentType":5126,
			"count":2278,
			"type":"VEC2"
		},
		{
			"bufferView":3,
			"componentType":5126,
			"count":2278,
			"type":"VEC2"
		},
		{
			"bufferView":4,
			"componentType":5126,
			"count":2278,
			"type":"VEC2"
		},
		{
			"bufferView":5,
			"componentType":5126,
			"count":2278,
			"type":"VEC2"
		},
		{
			"bufferView":6,
			"componentType":5126,
			"count":2278,
			"type":"VEC2"
		},
		{
			"bufferView":7,
			"componentType":5126,
			"count":2278,
			"type":"VEC2"
		},
		{
			"bufferView":8,
			"componentType":5126,
			"count":2278,
			"type":"VEC2"
		},
		{
			"bufferView":9,
			"componentType":5126,
			"count":2278,
			"type":"VEC3"
		},
		{
			"bufferView":10,
			"componentType":5123,
			"count":6684,
			"type":"SCALAR"
		},
		{
			"bufferView":11,
			"componentType":5126,
			"count":25,
			"max":[
				0.8333333333333334
			],
			"min":[
				0.03333333333333333
			],
			"type":"SCALAR"
		},
		{
			"bufferView":12,
			"componentType":5126,
			"count":25,
			"type":"VEC3"
		},
		{
			"bufferView":13,
			"componentType":5126,
			"count":25,
			"type":"VEC4"
		},
		{
			"bufferView":14,
			"componentType":5126,
			"count":25,
			"type":"VEC3"
		}
	],
	"bufferViews":[
		{
			"buffer":0,
			"byteLength":18224,
			"byteOffset":0,
			"target":34962
		},
		{
			"buffer":0,
			"byteLength":27336,
			"byteOffset":18224,
			"target":34962
		},
		{
			"buffer":0,
			"byteLength":18224,
			"byteOffset":45560,
			"target":34962
		},
		{
			"buffer":0,
			"byteLength":18224,
			"byteOffset":63784,
			"target":34962
		},
		{
			"buffer":0,
			"byteLength":18224,
			"byteOffset":82008,
			"target":34962
		},
		{
			"buffer":0,
			"byteLength":18224,
			"byteOffset":100232,
			"target":34962
		},
		{
			"buffer":0,
			"byteLength":18224,
			"byteOffset":118456,
			"target":34962
		},
		{
			"buffer":0,
			"byteLength":18224,
			"byteOffset":136680,
			"target":34962
		},
		{
			"buffer":0,
			"byteLength":18224,
			"byteOffset":154904,
			"target":34962
		},
		{
			"buffer":0,
			"byteLength":27336,
			"byteOffset":173128,
			"target":34962
		},
		{
			"buffer":0,
			"byteLength":13368,
			"byteOffset":200464,
			"target":34963
		},
		{
			"buffer":0,
			"byteLength":100,
			"byteOffset":213832
		},
		{
			"buffer":0,
			"byteLength":300,
			"byteOffset":213932
		},
		{
			"buffer":0,
			"byteLength":400,
			"byteOffset":214232
		},
		{
			"buffer":0,
			"byteLength":300,
			"byteOffset":214632
		}
	],
	"buffers":[
		{
			"byteLength":214932,
			"uri":"window.bin"
		}
	]
}
