{
	"asset":{
		"generator":"Khronos glTF Blender I/O v3.5.30",
		"version":"2.0"
	},
	"scene":2,
	"scenes":[
		{
			"name":"Scene"
		},
		{
			"name":"Scene.001"
		},
		{
			"name":"Scene.002",
			"nodes":[
				0
			]
		}
	],
	"nodes":[
		{
			"mesh":0,
			"name":"window"
		}
	],
	"animations":[
		{
			"channels":[
				{
					"sampler":0,
					"target":{
						"node":0,
						"path":"translation"
					}
				},
				{
					"sampler":1,
					"target":{
						"node":0,
						"path":"rotation"
					}
				},
				{
					"sampler":2,
					"target":{
						"node":0,
						"path":"scale"
					}
				}
			],
			"name":"window",
			"samplers":[
				{
					"input":5,
					"interpolation":"LINEAR",
					"output":6
				},
				{
					"input":5,
					"interpolation":"LINEAR",
					"output":7
				},
				{
					"input":5,
					"interpolation":"LINEAR",
					"output":8
				}
			]
		}
	],
	"materials":[
		{
			"doubleSided":true,
			"name":"window",
			"pbrMetallicRoughness":{
				"baseColorFactor":[
					0.800000011920929,
					0.800000011920929,
					0.800000011920929,
					1
				],
				"metallicFactor":0,
				"roughnessFactor":0.5
			}
		}
	],
	"meshes":[
		{
			"name":"Mesh.22591",
			"primitives":[
				{
					"attributes":{
						"COLOR_0":0,
						"POSITION":1,
						"TEXCOORD_0":2,
						"NORMAL":3
					},
					"indices":4,
					"material":0
				}
			]
		}
	],
	"accessors":[
		{
			"bufferView":0,
			"componentType":5123,
			"count":2403,
			"normalized":true,
			"type":"VEC4"
		},
		{
			"bufferView":1,
			"componentType":5126,
			"count":2403,
			"max":[
				14.009651184082031,
				8.284830093383789,
				10.507237434387207
			],
			"min":[
				-14.009650230407715,
				-0.570448637008667,
				-10.507237434387207
			],
			"type":"VEC3"
		},
		{
			"bufferView":2,
			"componentType":5126,
			"count":2403,
			"type":"VEC2"
		},
		{
			"bufferView":3,
			"componentType":5126,
			"count":2403,
			"type":"VEC3"
		},
		{
			"bufferView":4,
			"componentType":5123,
			"count":6684,
			"type":"SCALAR"
		},
		{
			"bufferView":5,
			"componentType":5126,
			"count":25,
			"max":[
				0.8333333333333334
			],
			"min":[
				0.03333333333333333
			],
			"type":"SCALAR"
		},
		{
			"bufferView":6,
			"componentType":5126,
			"count":25,
			"type":"VEC3"
		},
		{
			"bufferView":7,
			"componentType":5126,
			"count":25,
			"type":"VEC4"
		},
		{
			"bufferView":8,
			"componentType":5126,
			"count":25,
			"type":"VEC3"
		}
	],
	"bufferViews":[
		{
			"buffer":0,
			"byteLength":19224,
			"byteOffset":0,
			"target":34962
		},
		{
			"buffer":0,
			"byteLength":28836,
			"byteOffset":19224,
			"target":34962
		},
		{
			"buffer":0,
			"byteLength":19224,
			"byteOffset":48060,
			"target":34962
		},
		{
			"buffer":0,
			"byteLength":28836,
			"byteOffset":67284,
			"target":34962
		},
		{
			"buffer":0,
			"byteLength":13368,
			"byteOffset":96120,
			"target":34963
		},
		{
			"buffer":0,
			"byteLength":100,
			"byteOffset":109488
		},
		{
			"buffer":0,
			"byteLength":300,
			"byteOffset":109588
		},
		{
			"buffer":0,
			"byteLength":400,
			"byteOffset":109888
		},
		{
			"buffer":0,
			"byteLength":300,
			"byteOffset":110288
		}
	],
	"buffers":[
		{
			"byteLength":110588,
			"uri":"window.bin"
		}
	]
}
