<?xml version="1.0" encoding="UTF-8"?>
<svg id="log2" xmlns="http://www.w3.org/2000/svg" viewBox="0 0 939.77 1242.51">
  <path d="m350.89,1117.73c-23.74,13.48-56.77,20.67-84.26,22.05-69.06,3.46-117.24-3.95-179.59-23.76-17.21-5.47-32.8-15.32-46.29-26.88-36.43-31.22-48.7-83.61-35.72-128.65,12.98-45.05,48.52-82.37,91.36-104.99s92.45-31.58,141.4-32.44c76.27-1.34,155.23,17.73,213.16,65.08,12.08,9.88,25.8,33.06,30.3,47.62,10.31,33.32,10.14,58.63-9.07,89.39-19.21,30.77-48.59,54.32-77.41,77.26l-3.86,2.61c10.17,17.38,23.28,33.19,38.67,46.63l5.94,6.75c-32.57-6.71-58.26-18.88-83.64-39.48l-.99-1.17Z" style="fill: #032e23; stroke-width: 0px;"/>
  <g>
    <path d="m63.6,1014.84c-2.23-1.63-4-3.16-5.3-4.57-1.3-1.42-2.01-2.79-2.13-4.12-.12-1.09-.11-2.57.04-4.44.15-1.87.35-3.71.59-5.52.24-1.81.45-3.17.63-4.08.3-.3.42-.96.36-1.99-.06-.3.15-1.1.63-2.4.48-1.3.94-2.97,1.36-5.03,1.21-3.62,2.37-6.66,3.49-9.1,1.12-2.45,2.22-4.54,3.31-6.29,1.09-1.75,2.17-3.35,3.26-4.8,2.48-2.54,4.81-4.56,7.02-6.07,2.2-1.51,4.24-2.69,6.11-3.53,1.21-.72,2.32-1.3,3.35-1.72,1.03-.42,1.87-.48,2.54-.18,3.38.72,6.25,2.2,8.6,4.44,2.35,2.23,3.92,5.46,4.71,9.69.42,2.66.68,5.06.77,7.2.09,2.14-.08,4.26-.5,6.34-.42,2.08-1.19,4.36-2.31,6.84-1.12,2.48-2.67,5.37-4.66,8.69-2.48,4.89-5.18,8.98-8.1,12.27-2.93,3.29-5.86,5.78-8.78,7.47-2.93,1.69-5.71,2.61-8.33,2.76-2.63.15-4.84-.47-6.66-1.86Zm7.24-5.98c1.39-.18,2.52-.45,3.4-.81.87-.36,1.8-1.06,2.76-2.08.97-1.03,2.32-2.54,4.08-4.53,1.57-1.81,2.88-3.35,3.94-4.62,1.06-1.27,1.96-2.57,2.72-3.89.75-1.33,1.48-2.91,2.17-4.75.69-1.84,1.46-4.21,2.31-7.11.48-1.81.83-3.15,1.04-4.03.21-.88.35-1.61.41-2.22.06-.6.08-1.43.05-2.49-.03-1.06-.05-2.67-.05-4.84-.06-1.03-.27-2.19-.63-3.49-.36-1.3-.79-2.22-1.27-2.76-.6-.66-1.51-1.24-2.72-1.72-1.21-.48-2.48-.42-3.8.18-.72.3-1.63.92-2.72,1.86-1.09.94-2.2,2.04-3.35,3.31-1.15,1.27-2.23,2.54-3.26,3.8-1.03,1.27-1.84,2.42-2.44,3.44-.6,1.03-.91,1.75-.91,2.17-.06.6-.21,1.06-.45,1.36-.79.85-1.6,2.23-2.44,4.17-.85,1.93-1.63,4.14-2.35,6.61-.72,2.48-1.33,4.95-1.81,7.43-.48,2.48-.79,4.71-.91,6.7v2.44c0,.67.08,1.25.23,1.77.15.51.41,1.07.77,1.68.36.6,1.1,1.21,2.22,1.81,1.12.6,2.13.82,3.03.63Z" style="fill: #cd522d; stroke-width: 0px;"/>
    <path d="m102.36,1019.37c-1.21-.67-2.02-1.45-2.44-2.35-.42-.91-.59-1.9-.5-2.99.09-1.09.29-2.2.59-3.35.48-1.93,1.01-3.55,1.58-4.84.57-1.3,1.15-2.66,1.72-4.08.57-1.42,1.07-3.24,1.49-5.48.97-2.23,1.83-4.35,2.58-6.34.75-1.99,1.55-4.26,2.4-6.79.06-.24.32-.88.77-1.9.45-1.03,1.03-2.28,1.72-3.76.69-1.48,1.37-2.97,2.04-4.48,1.03-2.9,1.99-5.36,2.9-7.38.91-2.02,1.83-3.85,2.76-5.48.94-1.63,1.95-3.26,3.03-4.89.72-1.27,1.75-2.02,3.08-2.26,1.33-.24,2.6-.11,3.8.41,1.21.51,1.99,1.37,2.35,2.58.3.6.56,1.3.77,2.08.21.79.42,1.95.63,3.49.21,1.54.35,3.76.41,6.66.12,3.44.2,6.6.23,9.46.03,2.87.15,5.51.36,7.92.21,2.42.59,4.62,1.13,6.61.18,1.09.36,2.4.54,3.94.18,1.54.38,3.06.59,4.57.21,1.51.44,2.76.68,3.76.24,1,.48,1.49.72,1.49.3,0,.65-.26,1.04-.77.39-.51.92-1.61,1.58-3.31.66-1.69,1.51-4.29,2.54-7.79,1.03-3.5,2.26-8.21,3.71-14.13.3-1.03.71-2.69,1.22-4.98.51-2.29.89-4.62,1.13-6.97.42-1.51.84-3.17,1.27-4.98.42-1.81.8-3.41,1.13-4.8.33-1.39.5-2.17.5-2.35,0-.42.01-.78.04-1.09.03-.3.01-.6-.04-.91.3,0,.57-.41.81-1.22.24-.81.36-1.52.36-2.13,0-1.03.14-1.86.41-2.49s.56-1.1.86-1.4c.66-1.21,1.52-1.83,2.58-1.86,1.06-.03,2.04.27,2.94.91.91.63,1.45,1.4,1.63,2.31.12.67-.05,2.16-.5,4.48-.45,2.32-1.13,5.45-2.04,9.37,0,.67-.18,1.75-.54,3.26-.36,1.51-.74,3.11-1.13,4.8-.39,1.69-.68,3.14-.86,4.35-.24,1.57-.51,3.03-.81,4.39-.3,1.36-.6,2.01-.91,1.95-1.57,6.82-3.21,12.63-4.94,17.43-1.72,4.8-3.25,8.71-4.57,11.73-1.45,3.32-3.31,5.45-5.57,6.38-2.26.94-4.36.17-6.29-2.31-1.15-1.57-2.11-3.11-2.9-4.62-.79-1.51-1.42-3.29-1.9-5.34-.48-2.05-.91-4.65-1.27-7.79-.36-2.54-.68-5.03-.95-7.47-.27-2.45-.47-4.95-.59-7.52-.12-2.56-.15-5.3-.09-8.19.06-3.44-.08-5.46-.41-6.07-.33-.6-.8-.27-1.4,1-.6,1.27-1.3,2.99-2.08,5.16-.42,1.21-.92,2.58-1.49,4.12-.57,1.54-1.16,3.07-1.77,4.57-.6,1.51-1.12,2.81-1.54,3.89-.42,1.09-.69,1.78-.81,2.08-.36.72-.79,1.68-1.27,2.85-.48,1.18-.88,2.43-1.18,3.76-2.17,5.68-3.79,10.55-4.84,14.62-1.06,4.08-1.83,6.78-2.31,8.1-.6,1.69-1.16,2.72-1.68,3.08-.51.36-1.53.12-3.03-.72Z" style="fill: #cd522d; stroke-width: 0px;"/>
    <path d="m177.79,1016.2c-2.42,0-4.57-.14-6.47-.41-1.9-.27-3.64-1.01-5.21-2.22-1.87-1.39-3.19-3.4-3.94-6.02-.76-2.63-.56-6.08.59-10.37.3-1.51.65-2.84,1.04-3.98.39-1.15.74-1.72,1.04-1.72.06-.3.15-.74.27-1.31.12-.57.24-1.25.36-2.04.3-1.09.51-1.89.63-2.4.12-.51.36-.95.72-1.31.18-.12.39-.53.63-1.22.24-.69.39-1.1.45-1.22.12-.91.3-1.66.54-2.26.91-1.51,1.36-2.5,1.36-2.99.12-.24.38-.6.77-1.09.39-.48.71-1.12.95-1.9,1.81-3.2,3.29-5.84,4.44-7.92,1.15-2.08,1.84-3.7,2.08-4.84.3-.66.59-1.46.86-2.4.27-.93.62-1.64,1.04-2.13-.12-.3.23-.63,1.04-1s1.89-.75,3.21-1.18c1.33-.42,2.75-.78,4.26-1.09,1.51-.3,2.9-.48,4.17-.54.36-.24,1.16-.42,2.4-.54,1.24-.12,2.67-.18,4.3-.18s3.14.06,4.53.18c1.33,0,2.38.18,3.17.54.78.36,1.57.72,2.35,1.09.3.3.72.72,1.27,1.27.54.54.89,1.12,1.04,1.72.15.6-.26,1.15-1.22,1.63-.18.18-1.18.33-2.99.45-1.81.12-3.71.18-5.71.18-2.23,0-4.17.18-5.8.54s-2.78.54-3.44.54c-.85.24-2.42.42-4.71.54-.12,0-.42.35-.91,1.04-.48.69-1.01,1.51-1.58,2.45-.57.94-1.09,1.8-1.54,2.58-.45.79-.68,1.27-.68,1.45,0,.6-.24,1.27-.72,1.99-.48.72-1.06,1.57-1.72,2.54-.6.79-1,1.62-1.18,2.49-.18.88,0,1.44.54,1.68.96-.18,2.31-.36,4.03-.54,1.72-.18,3.43-.35,5.12-.5,1.69-.15,2.99-.23,3.89-.23,1.03-.3,1.87-.36,2.54-.18.66.18,1.15.36,1.45.54.72.12,1.16.48,1.31,1.09.15.6.14,1.21-.04,1.81-.18.6-.48,1-.91,1.18-.36.36-1.27.79-2.72,1.27-1.45.48-3.16.97-5.12,1.45-1.96.48-3.92.92-5.89,1.31-1.96.39-3.65.71-5.07.95-1.42.24-2.25.33-2.49.27-.36-.84-.77-.83-1.22.04-.45.88-.98,2.64-1.58,5.3-.67,1.51-1.16,2.64-1.49,3.4-.33.75-.59,1.57-.77,2.44-.18.88-.45,2.25-.81,4.12-.42,1.63-.38,3.09.14,4.39.51,1.3,1.73,2.4,3.67,3.3,1.21.24,2.59.33,4.17.27,1.57-.06,3.65-.42,6.25-1.09,1.09-.66,2.17-1.28,3.26-1.86,1.09-.57,1.84-.98,2.26-1.22.3,0,.77-.14,1.4-.41.63-.27,1.07-.41,1.31-.41.48-.66,1.09-1,1.81-1,.12,0,.47.27,1.04.81.57.54,1.13,1.24,1.68,2.08.54.85.81,1.72.81,2.63,0,.6-1.01,1.39-3.03,2.35-2.02.97-4.54,2.05-7.56,3.26-1.51.66-2.73,1.18-3.67,1.54-.94.36-1.83.62-2.67.77-.85.15-1.96.23-3.35.23Z" style="fill: #cd522d; stroke-width: 0px;"/>
    <path d="m231.31,1016.29c-.54-.24-1.18-.72-1.9-1.45-1.21-1.03-2.01-2.34-2.4-3.94-.39-1.6-.44-3.15-.14-4.66.72-1.81,1.52-3.06,2.4-3.76.87-.69,1.81-1,2.81-.91s1.95.47,2.85,1.13c-.42,1.27-.76,2.42-1,3.44-.24,1.03-.15,1.9.27,2.63.42.72,1.42,1.3,2.99,1.72,1.21.12,2.25.17,3.12.14.87-.03,1.92-.08,3.12-.14,1.39-.12,2.49-.27,3.31-.45.81-.18,1.55-.36,2.22-.54,1.69-.48,3.14-1.16,4.35-2.04,1.21-.87,2.2-1.89,2.99-3.03.48-.84.81-1.61,1-2.31.18-.69.27-1.43.27-2.22,0-.91-.09-1.7-.27-2.4-.18-.69-.5-1.54-.95-2.54s-1.16-2.4-2.13-4.21c-.06-.42-.53-1.15-1.4-2.17-.88-1.03-1.74-2.02-2.58-2.99-.42-.96-.97-2.07-1.63-3.3-.67-1.24-1.42-2.13-2.26-2.67-.24-.36-.5-.93-.77-1.72-.27-.78-.5-1.21-.68-1.27-.3-.6-.54-1.12-.72-1.54-.79-1.75-.81-3.94-.09-6.57s2.05-5.08,3.98-7.38c.66-1.09,1.51-2.19,2.54-3.3,1.03-1.12,1.98-2.05,2.85-2.81.87-.75,1.43-1.13,1.68-1.13.78-.3,1.48-.66,2.08-1.09.66-.42,1.3-.77,1.9-1.04.6-.27,1.48-.53,2.63-.77l.54-.09.36-.09c1.03-.3,1.87-.53,2.54-.68.66-.15,1.3-.23,1.9-.23s1.33.03,2.17.09c2.72.72,4.81,1.71,6.29,2.94,1.48,1.24,2.28,3.46,2.4,6.66l-.72,2.54-1.54,1.72c-.18-.06-.65.12-1.4.54-.76.42-1.78.74-3.08.95-1.3.21-2.94-.08-4.94-.86-.24-.06-.33-.23-.27-.5.06-.27.3-.44.72-.5.18-.12.47-.39.86-.82.39-.42.77-.91,1.13-1.45.78-1.09.98-1.92.59-2.49-.39-.57-1.13-.86-2.22-.86-2.05.06-4.02.44-5.89,1.13-1.87.69-3.59,1.92-5.16,3.67-1.27,1.63-2.2,3.07-2.81,4.3-.6,1.24-.91,2.37-.91,3.4.12.42.2,1.04.23,1.86.03.82.26,1.65.68,2.49,1.99,2.78,3.55,4.92,4.66,6.43,1.12,1.51,1.89,2.6,2.31,3.26.12.18.21.33.27.45.06.12.09.24.09.36.24.42.57,1.03,1,1.81.42.79.81,1.54,1.18,2.26.36.72.54,1.21.54,1.45.36.67.66,1.3.91,1.9.3.54.59,1.31.86,2.31.27,1,.5,2.05.68,3.17.18,1.12.27,2.13.27,3.03,0,.72-.18,1.65-.54,2.76-.36,1.12-.83,2.23-1.4,3.35-.57,1.12-1.28,2.04-2.13,2.76-.85.72-2.08,1.6-3.71,2.63s-3.41,1.96-5.34,2.81c-1.93.84-3.8,1.42-5.61,1.72-1.81.3-3.52.54-5.12.72-1.6.18-3.08.26-4.44.23-1.36-.03-2.58-.2-3.67-.5-1.09-.3-1.99-.76-2.72-1.36Z" style="fill: #cd522d; stroke-width: 0px;"/>
    <path d="m287.72,1015.48c-1.21-.3-2.69-.79-4.44-1.45-1.75-.67-3.32-1.39-4.71-2.17-1.39-.78-2.17-1.45-2.35-1.99,0-.3-.12-.56-.36-.77-.24-.21-.51-.32-.81-.32v-.72c0-.24.01-.5.05-.77.03-.27-.11-.5-.41-.68-.42-.91-.53-2.38-.32-4.44.21-2.05.6-4.27,1.18-6.66.57-2.38,1.16-4.45,1.77-6.2,0-.54.1-1.09.32-1.63.21-.54.32-.96.32-1.27.18-.54.51-1.37,1-2.49.48-1.12,1.06-2.35,1.72-3.71.66-1.36,1.33-2.66,1.99-3.89.66-1.24,1.27-2.19,1.81-2.85,0-.3.21-.69.63-1.18.42-.48.75-1.15,1-1.99.48-.48,1.1-1.3,1.86-2.45.75-1.15,1.43-2.2,2.04-3.17,1.27-1.03,2.05-1.95,2.35-2.76.3-.81.39-1.46.27-1.95.06-.91.33-1.62.81-2.13.48-.51,1.24-.95,2.26-1.31,1.03-.36,2.32-.72,3.89-1.09,1.93-.72,3.91-1.24,5.93-1.54,2.02-.3,4.6-.48,7.74-.54.96-.24,1.99-.39,3.08-.45.12-.12.66-.12,1.63,0,.96.12,2.05.38,3.26.77,1.21.39,2.25.86,3.12,1.4.87.54,1.28,1.18,1.22,1.9,0,.36-.67.77-1.99,1.22-1.33.45-2.87.88-4.62,1.27-1.75.39-3.29.68-4.62.86-2.72.3-4.98.57-6.79.81-1.81.24-3.34.62-4.57,1.13-1.24.51-2.39,1.31-3.44,2.4-1.06,1.09-2.25,2.66-3.58,4.71-1.21,1.93-2.08,3.49-2.63,4.66-.54,1.18-.74,2.04-.59,2.58.15.54.56.82,1.22.82.72,0,1.63-.08,2.72-.23,1.09-.15,1.81-.23,2.17-.23,2.23-.78,4.19-1.3,5.89-1.54,1.93-.36,3.24-.65,3.94-.86.69-.21,1.37-.35,2.04-.41,2.05-.18,3.29.18,3.71,1.09.42.91.26,1.93-.5,3.08-.76,1.15-1.89,2.02-3.4,2.63-.6.24-1.36.51-2.26.82-.91.3-1.75.56-2.54.77-.79.21-1.3.32-1.54.32-.91.18-1.75.27-2.54.27-.18,0-1.06.11-2.63.32-1.57.21-3.05.41-4.44.59-2.11.54-3.7.98-4.75,1.31-1.06.33-1.83.77-2.31,1.31-.48.54-.97,1.42-1.45,2.63-.54,1.33-1.03,2.85-1.45,4.57-.42,1.72-.74,3.43-.95,5.12-.21,1.69-.27,3.16-.18,4.39.09,1.24.35,2.07.77,2.49,1.09,1.15,2.54,1.86,4.35,2.13,1.81.27,3.7.17,5.66-.32,1.96-.48,3.67-1.18,5.12-2.08.48-.36,1.07-.74,1.77-1.13.69-.39,1.37-.71,2.04-.95.78-.48,1.4-.63,1.86-.45.45.18,1.25.69,2.4,1.54,1.03,1.45.98,2.82-.14,4.12-1.12,1.3-3.37,2.67-6.75,4.12-3.14,1.15-5.63,1.9-7.47,2.26-1.84.36-3.64.48-5.39.36Z" style="fill: #cd522d; stroke-width: 0px;"/>
    <path d="m332.45,1017.92c-2.6-.12-4.77-.48-6.52-1.09-1.75-.6-3.74-1.66-5.98-3.17-.24-.42-.54-1.13-.91-2.13-.36-1-.72-2.07-1.09-3.21-.36-1.15-.65-2.16-.86-3.03-.21-.88-.29-1.4-.23-1.58.24-.3.36-.68.36-1.13s-.03-.8-.09-1.04c-.24-.91-.06-2.5.54-4.8.6-2.29,1.55-5.16,2.85-8.6,1.3-3.44,2.85-7.24,4.66-11.41,1.15-2.47,2.69-5.16,4.62-8.06,1.93-2.9,4.03-5.69,6.29-8.38,2.26-2.69,4.48-5.01,6.66-6.97,2.17-1.96,4.01-3.27,5.52-3.94,1.03-.42,1.96-.65,2.81-.68.84-.03,1.72.02,2.63.14,1.63.24,3.17.8,4.62,1.68s2.66,2.07,3.62,3.58c1.03,1.57,1.69,3.32,1.99,5.25.3,1.93.39,3.8.27,5.61-.12,1.81-.36,3.32-.72,4.53-.36.97-.72,1.67-1.09,2.13s-.91.74-1.63.86c-.24.06-.92-.08-2.04-.41-1.12-.33-2.01-.68-2.67-1.04-.72-.48-1.3-1.24-1.72-2.26.18-1.51.39-2.63.63-3.35.84-2.78,1.15-4.77.91-5.98-.24-1.21-1.06-2.05-2.45-2.54-1.33-.06-2.96.76-4.89,2.45-1.93,1.69-3.83,3.62-5.71,5.79-2.72,3.32-5.04,6.58-6.97,9.78-1.93,3.2-3.65,6.67-5.16,10.41-1.33,3.86-2.37,7.11-3.12,9.74-.76,2.63-1.25,4.72-1.49,6.29.12.79.2,1.43.23,1.95.03.51-.08.77-.32.77.12.72.36,1.57.72,2.54.36.97,1.12,1.87,2.26,2.72.24.24.6.44,1.09.59.48.15,1.03.2,1.63.14.96-.06,1.98-.21,3.03-.45,1.06-.24,2.02-.53,2.9-.86.87-.33,1.49-.65,1.86-.95,1.09-.18,2.02-.45,2.81-.82.54-.3,1.24-.63,2.08-1,.84-.36,1.78-.75,2.81-1.18,1.81-.84,3.33-1.27,4.57-1.27s2.25.12,3.03.36c-.3,1.69-.57,2.87-.81,3.53-.3.42-.68.92-1.13,1.49-.45.57-1.04,1.13-1.77,1.67-.72.54-1.63,1.06-2.72,1.54-.3.06-.79.26-1.45.59-.66.33-1.39.74-2.17,1.22-1.69,1.03-3.52,1.9-5.48,2.63-1.96.72-4.24,1.18-6.84,1.36Z" style="fill: #cd522d; stroke-width: 0px;"/>
    <path d="m367.95,1006.96c-1.27.42-2.32.62-3.17.59-.85-.03-1.78-.41-2.81-1.13-1.21-1.21-1.62-2.43-1.22-3.67.39-1.24,1.46-2.46,3.21-3.67,1.21-.72,2.1-1.1,2.67-1.13.57-.03,1.43.2,2.58.68,2.05,1.27,2.96,2.67,2.72,4.21-.24,1.54-1.57,2.91-3.98,4.12Z" style="fill: #cd522d; stroke-width: 0px;"/>
    <path d="m385.88,1006.96c-1.27.42-2.32.62-3.17.59-.85-.03-1.78-.41-2.81-1.13-1.21-1.21-1.62-2.43-1.22-3.67.39-1.24,1.46-2.46,3.21-3.67,1.21-.72,2.1-1.1,2.67-1.13.57-.03,1.43.2,2.58.68,2.05,1.27,2.96,2.67,2.72,4.21-.24,1.54-1.57,2.91-3.98,4.12Z" style="fill: #cd522d; stroke-width: 0px;"/>
    <path d="m403.81,1006.96c-1.27.42-2.32.62-3.17.59-.85-.03-1.78-.41-2.81-1.13-1.21-1.21-1.62-2.43-1.22-3.67.39-1.24,1.46-2.46,3.21-3.67,1.21-.72,2.1-1.1,2.67-1.13.57-.03,1.43.2,2.58.68,2.05,1.27,2.96,2.67,2.72,4.21-.24,1.54-1.57,2.91-3.98,4.12Z" style="fill: #cd522d; stroke-width: 0px;"/>
  </g>
</svg>