<?xml version="1.0" encoding="UTF-8"?>
<svg id="log1" xmlns="http://www.w3.org/2000/svg" viewBox="0 0 939.77 1242.51">
  <path d="m645,237.57c18.26,10.86,43.66,16.66,64.8,17.77,53.11,2.79,90.15-3.19,138.11-19.15,13.24-4.41,25.22-12.34,35.6-21.67,28.01-25.16,37.45-67.39,27.47-103.69-9.98-36.31-37.31-66.39-70.26-84.62C807.77,7.97,769.62.75,731.97.05c-58.65-1.08-119.38,14.29-163.92,52.46-9.29,7.96-19.84,26.65-23.3,38.38-7.93,26.86-7.8,47.25,6.97,72.05,14.77,24.8,37.36,43.78,59.53,62.27l2.97,2.1c-7.82,14.01-17.9,26.75-29.74,37.58l-4.57,5.44c25.05-5.41,44.8-15.22,64.32-31.82l.76-.94Z" style="fill: #032e23; stroke-width: 0px;"/>
  <g>
    <path d="m648.18,110.27c-1.06.17-2.34.15-3.84-.04-1.5-.2-3.12-.52-4.84-.96-.89-.28-1.52-.61-1.88-1-.36-.39-.96-1.11-1.79-2.17-.56-.83-.91-1.78-1.04-2.84-.14-1.06,0-2,.42-2.84.42-.83,1.13-1.34,2.13-1.5.45-.11.99-.01,1.63.29.64.31,1.32.68,2.04,1.13,1.17.67,2.42,1.35,3.76,2.04,1.33.69,2.56.96,3.67.79.78-.17,1.71-.27,2.8-.29,1.08-.03,2.14-.12,3.17-.29,1.03-.17,1.85-.47,2.46-.92,2.95-2,5.87-4.2,8.76-6.59.11-.22.32-.4.63-.54.3-.14.68-.29,1.13-.46.33-.33.86-.88,1.58-1.63.72-.75,1.43-1.49,2.13-2.21.7-.72,1.13-1.14,1.29-1.25.11-.5.22-.9.33-1.21.11-.31.17-.63.17-.96.45-.44,1.04-1.38,1.79-2.8s1.52-3,2.29-4.76c.78-1.75,1.34-3.35,1.67-4.8.72-3.06.97-5.84.75-8.35-.22-2.5-.86-4.76-1.92-6.76-1.06-2-2.48-3.76-4.26-5.26-.61-.5-1.45-1.04-2.5-1.63-1.06-.58-2.14-1.14-3.25-1.67-1.11-.53-2.1-.93-2.96-1.21-.86-.28-1.38-.39-1.54-.33-.22.06-.65.91-1.29,2.55-.64,1.64-1.42,3.74-2.34,6.3-.92,2.56-1.89,5.3-2.92,8.22-1.03,2.92-2.02,5.69-2.96,8.3-.28,1.06-.63,2.17-1.04,3.34-.42,1.17-.77,2.18-1.04,3.05-.28.86-.42,1.43-.42,1.71-.61.95-1.25,2.39-1.92,4.34-.67,1.95-1.22,4.73-1.67,8.35-.5,1.89-.86,3.46-1.08,4.72-.22,1.25-.45,1.85-.67,1.79-.11,1.06-.25,1.67-.42,1.84,0,.33-.33.56-1,.67-.67.11-1.45-.03-2.34-.42-.89-.39-1.72-1.14-2.5-2.25-.17-.61-.29-1.52-.38-2.71-.08-1.2.1-2.6.54-4.21.28-1.06.67-2.42,1.17-4.09s1.06-3.39,1.67-5.17c.61-1.78,1.18-3.42,1.71-4.92.53-1.5.9-2.61,1.13-3.34.39-.95.95-2.73,1.67-5.34.45-1.45.9-2.89,1.38-4.34.47-1.45.93-2.74,1.38-3.88.44-1.14.75-1.88.92-2.21.28-.72.63-1.91,1.04-3.55.42-1.64,1.07-3.52,1.96-5.63l.58-2.75-.92-.42c-.67.22-1.18.29-1.54.21-.36-.08-.6-.15-.71-.21-.33.11-.77.01-1.29-.29-.53-.31-1-.71-1.42-1.21-.42-.5-.68-.92-.79-1.25-.11-.22-.2-.7-.25-1.42.05-.33.53-.68,1.42-1.04.89-.36,2.04-.71,3.46-1.04,1.42-.33,2.93-.58,4.55-.75,1.61-.17,3.12-.19,4.51-.08,1.45.11,3.23.45,5.34,1,2.11.56,3.92,1.11,5.42,1.67,1.78.67,3.7,1.81,5.76,3.42,2.06,1.61,3.94,3.53,5.63,5.76,1.7,2.23,2.82,4.56,3.38,7.01.17.67.33,1.61.5,2.84.17,1.22.26,2.41.29,3.55.03,1.14-.1,1.88-.38,2.21-.11.22-.18.49-.21.79-.03.31.07.52.29.63-.06.17-.25.79-.58,1.88s-.64,2.02-.92,2.8c-.11,1.45-.49,3.12-1.13,5.01-.64,1.89-1.34,3.69-2.09,5.38-.75,1.7-1.41,3.02-1.96,3.96-.22,0-.43.04-.63.12-.2.08-.18.15.04.21,0,.28-.31.81-.92,1.59-.22.17-.57.57-1.04,1.21-.47.64-.85,1.07-1.13,1.29-.06.39-.22.71-.5.96-.28.25-.53.38-.75.38-.17,0-.25.11-.25.33-.45.67-1.2,1.53-2.25,2.59-1.06,1.06-2.25,2.14-3.59,3.26-1.33,1.11-2.67,2.14-4.01,3.09-1.34.95-2.56,1.64-3.67,2.09-.56.39-1.14.71-1.75.96-.61.25-1.2.51-1.75.79-.28.22-1.08.42-2.42.58-1.33.17-2.74.31-4.21.42-1.47.11-2.63.25-3.46.42Z" style="fill: #cd522d; stroke-width: 0px;"/>
    <path d="m695.08,104.35c-2.06-1.5-3.69-2.91-4.88-4.21-1.2-1.31-1.85-2.57-1.96-3.8-.11-1-.1-2.36.04-4.09.14-1.72.32-3.42.54-5.09.22-1.67.42-2.92.58-3.76.28-.28.39-.89.33-1.84-.06-.28.14-1.01.58-2.21.45-1.2.86-2.74,1.25-4.63,1.11-3.34,2.18-6.13,3.21-8.39,1.03-2.25,2.04-4.19,3.05-5.8,1-1.61,2-3.09,3-4.42,2.28-2.34,4.44-4.2,6.47-5.59,2.03-1.39,3.91-2.48,5.63-3.25,1.11-.67,2.14-1.2,3.09-1.59.95-.39,1.72-.44,2.34-.17,3.12.67,5.76,2.03,7.93,4.09,2.17,2.06,3.62,5.04,4.34,8.93.39,2.45.63,4.66.71,6.64.08,1.98-.07,3.92-.46,5.84-.39,1.92-1.1,4.02-2.13,6.3-1.03,2.28-2.46,4.95-4.3,8.01-2.28,4.51-4.77,8.28-7.47,11.31-2.7,3.03-5.4,5.33-8.1,6.89-2.7,1.56-5.26,2.41-7.68,2.55-2.42.14-4.47-.43-6.13-1.71Zm6.68-5.51c1.28-.17,2.32-.42,3.13-.75.81-.33,1.66-.97,2.55-1.92.89-.95,2.14-2.34,3.76-4.17,1.45-1.67,2.66-3.09,3.63-4.26.97-1.17,1.81-2.36,2.5-3.59.7-1.22,1.36-2.68,2-4.38.64-1.7,1.35-3.88,2.13-6.55.44-1.67.76-2.91.96-3.71.19-.81.32-1.49.38-2.04.06-.56.07-1.32.04-2.29-.03-.97-.04-2.46-.04-4.47-.06-.95-.25-2.02-.58-3.21-.33-1.2-.72-2.04-1.17-2.55-.56-.61-1.39-1.14-2.5-1.59-1.11-.44-2.28-.39-3.51.17-.67.28-1.5.85-2.5,1.71-1,.86-2.03,1.88-3.09,3.05-1.06,1.17-2.06,2.34-3,3.51-.95,1.17-1.7,2.23-2.25,3.17-.56.95-.83,1.61-.83,2-.06.56-.2.97-.42,1.25-.72.78-1.48,2.06-2.25,3.84-.78,1.78-1.5,3.81-2.17,6.09-.67,2.28-1.22,4.56-1.67,6.84-.45,2.28-.72,4.34-.83,6.18v2.25c0,.61.07,1.16.21,1.63.14.47.38.99.71,1.54.33.56,1.01,1.11,2.04,1.67,1.03.56,1.96.75,2.8.58Z" style="fill: #cd522d; stroke-width: 0px;"/>
    <path d="m734.06,104.1c-.28.44-.54.83-.79,1.17-.25.33-.51.53-.79.58-.17-.28-.61-.67-1.33-1.17-.72-.5-1.42-1.03-2.09-1.59-.67-.56-1.06-1.06-1.17-1.5,0-.61.22-1.78.67-3.51.44-1.72,1.03-3.69,1.75-5.88.72-2.2,1.46-4.37,2.21-6.51.75-2.14,1.4-3.94,1.96-5.38.39-1,.72-1.88,1-2.63.28-.75.5-1.35.67-1.79.22-.61.61-1.5,1.17-2.67.56-1.17,1.15-2.36,1.79-3.59.64-1.22,1.4-2.73,2.29-4.51.05-.44.36-1.28.92-2.5.56-1.22,1.25-2.64,2.09-4.26.83-1.61,1.7-3.21,2.59-4.8.89-1.59,1.7-2.99,2.42-4.21.67-1,1.18-1.57,1.54-1.71.36-.14.68-.1.96.13,1.22-.11,2.29-.1,3.21.04.92.14,1.64.36,2.17.67.53.31.82.65.88,1.04.11.17.12.88.04,2.13-.08,1.25-.21,2.35-.38,3.3-.33,2.73-.5,5.25-.5,7.55s.15,4.84.46,7.6c.31,2.75.65,6.16,1.04,10.22l1.25,8.1,1.5-3.25c.56-1.22,1.06-2.46,1.5-3.71s.89-2.32,1.34-3.21c.44-1.28,1.2-3.12,2.25-5.51.5-.72.99-1.7,1.46-2.92.47-1.22.92-2.45,1.33-3.67.42-1.22.74-2.14.96-2.75.11-.39.29-.97.54-1.75.25-.78.53-1.64.83-2.59.31-.95.6-1.86.88-2.75.33-1.11.64-2.11.92-3,.28-.89.53-1.65.75-2.3.22-.64.36-1.07.42-1.29.45-.56.81-1.14,1.08-1.75l3-.67c1.28,1.06,2.02,2.04,2.21,2.96.19.92.01,2.1-.54,3.55-.06.56-.31,1.47-.75,2.75.33,0,.38.38.12,1.13-.25.75-.43,1.41-.54,1.96-.11.39-.29,1.06-.54,2-.25.95-.51,1.95-.79,3-.28,1.06-.53,1.98-.75,2.75-.11.45-.42,1.27-.92,2.46-.5,1.2-1.08,2.55-1.75,4.05-.67,1.5-1.35,3.02-2.04,4.55-.7,1.53-1.32,2.85-1.88,3.96-.56,1.11-.95,1.86-1.17,2.25-.17.33-.35.75-.54,1.25-.2.5-.43.89-.71,1.17-.28.89-.78,1.89-1.5,3-.72,1.11-1.49,2.2-2.3,3.26-.81,1.06-1.52,1.95-2.13,2.67-.72.78-1.45,1.36-2.17,1.75-.72.39-1.54.36-2.46-.08-.92-.44-2.04-1.45-3.38-3-.28-.44-.58-1.42-.92-2.92s-.68-3.24-1.04-5.22c-.36-1.97-.71-3.95-1.04-5.93-.33-1.97-.58-3.66-.75-5.05-.22-1.11-.31-1.99-.25-2.63.05-.64.08-1.32.08-2.04,0-.89.01-1.57.04-2.04.03-.47.07-.95.12-1.42.06-.47.08-1.1.08-1.88.05-.61.03-.99-.08-1.13-.11-.14-.33.01-.67.46-.95,1.39-1.75,2.67-2.42,3.84-.67,1.17-1.17,2.12-1.5,2.84-.22.61-.64,1.63-1.25,3.05-.61,1.42-1.28,2.99-2,4.72-.72,1.73-1.41,3.34-2.04,4.84-.64,1.5-1.13,2.64-1.46,3.42-.39.83-.79,1.96-1.21,3.38s-.82,2.89-1.21,4.42c-.39,1.53-.71,2.88-.96,4.05-.25,1.17-.43,1.92-.54,2.25-.06.05-.24.39-.54,1-.31.61-.54,1.08-.71,1.42Z" style="fill: #cd522d; stroke-width: 0px;"/>
    <path d="m796.66,105.6c-2.23,0-4.21-.13-5.97-.38-1.75-.25-3.35-.93-4.8-2.04-1.73-1.28-2.94-3.13-3.63-5.55-.7-2.42-.51-5.6.54-9.56.28-1.39.6-2.61.96-3.67.36-1.06.68-1.59.96-1.59.05-.28.14-.68.25-1.21.11-.53.22-1.15.33-1.88.28-1,.47-1.74.58-2.21.11-.47.33-.88.67-1.21.17-.11.36-.49.58-1.13.22-.64.36-1.01.42-1.13.11-.83.28-1.53.5-2.09.83-1.39,1.25-2.31,1.25-2.75.11-.22.35-.56.71-1,.36-.44.65-1.03.88-1.75,1.67-2.95,3.03-5.38,4.09-7.3,1.06-1.92,1.7-3.41,1.92-4.47.28-.61.54-1.35.79-2.21.25-.86.57-1.52.96-1.96-.11-.28.21-.58.96-.92s1.74-.69,2.96-1.08c1.22-.39,2.53-.72,3.92-1,1.39-.28,2.67-.44,3.84-.5.33-.22,1.07-.39,2.21-.5,1.14-.11,2.46-.17,3.96-.17s2.89.06,4.17.17c1.22,0,2.2.17,2.92.5.72.33,1.45.67,2.17,1,.28.28.67.67,1.17,1.17.5.5.82,1.03.96,1.59.14.56-.24,1.06-1.13,1.5-.17.17-1.08.31-2.75.42-1.67.11-3.42.17-5.26.17-2.06,0-3.84.17-5.34.5-1.5.33-2.56.5-3.17.5-.78.22-2.23.39-4.34.5-.11,0-.39.32-.83.96-.45.64-.93,1.39-1.46,2.25-.53.86-1,1.66-1.42,2.38-.42.72-.63,1.17-.63,1.33,0,.56-.22,1.17-.67,1.84-.45.67-.97,1.45-1.58,2.34-.56.72-.92,1.49-1.08,2.3-.17.81,0,1.32.5,1.54.89-.17,2.13-.33,3.71-.5,1.58-.17,3.16-.32,4.71-.46,1.56-.14,2.75-.21,3.59-.21.95-.28,1.72-.33,2.34-.17s1.06.33,1.34.5c.67.11,1.07.45,1.21,1,.14.56.12,1.11-.04,1.67-.17.56-.45.92-.83,1.08-.33.33-1.17.72-2.5,1.17-1.34.45-2.91.89-4.72,1.34-1.81.45-3.62.85-5.42,1.21-1.81.36-3.37.65-4.67.88-1.31.22-2.07.31-2.3.25-.33-.78-.71-.76-1.13.04-.42.81-.91,2.43-1.46,4.88-.61,1.39-1.07,2.44-1.38,3.13-.31.7-.54,1.45-.71,2.25-.17.81-.42,2.07-.75,3.8-.39,1.5-.35,2.85.12,4.05.47,1.2,1.6,2.21,3.38,3.05,1.11.22,2.39.31,3.84.25,1.45-.05,3.37-.39,5.76-1,1-.61,2-1.18,3-1.71,1-.53,1.7-.9,2.09-1.13.28,0,.71-.13,1.29-.38.58-.25.99-.38,1.21-.38.44-.61,1-.92,1.67-.92.11,0,.43.25.96.75.53.5,1.04,1.14,1.54,1.92.5.78.75,1.59.75,2.42,0,.56-.93,1.28-2.8,2.17-1.87.89-4.19,1.89-6.97,3-1.39.61-2.52,1.09-3.38,1.42-.86.33-1.68.57-2.46.71-.78.14-1.81.21-3.09.21Z" style="fill: #cd522d; stroke-width: 0px;"/>
    <path d="m652.02,207.92c-.22-.06-.68-.31-1.38-.75-.7-.45-1.32-.86-1.88-1.25-.39-.45-.63-.92-.71-1.42-.08-.5-.01-1.17.21-2,.22-.83.53-2,.92-3.51.05-1.28.32-2.84.79-4.67.47-1.84,1.04-3.37,1.71-4.59,0-.61.14-1.45.42-2.5.28-1.06.62-2.16,1.04-3.3.42-1.14.79-2.13,1.13-2.96l1.5-4.34,3.34-2.84,4.34,3c-.22.33-.42.72-.58,1.17-.17.45-.39,1.2-.67,2.25-.28,1.06-.7,2.7-1.25,4.92-.45,1.5-.93,3.12-1.46,4.84-.53,1.73-1.02,3.34-1.46,4.84-.45,1.5-.83,2.73-1.17,3.67-.67,2.5-1.27,4.48-1.79,5.93-.53,1.45-1.03,2.43-1.5,2.96-.47.53-.99.71-1.54.54Zm4.67-27.96l-2.92-3.67c-1.11-1.67-2-3.23-2.67-4.67-.67-1.45-1.14-3.23-1.42-5.34-.39-1.33-.64-2.59-.75-3.76-.11-1.17-.15-2.52-.12-4.05.03-1.53.07-3.43.12-5.72.05-2.11.39-3.85,1-5.22.61-1.36,1.03-2.27,1.25-2.71,1.17-1,2.13-1.2,2.88-.58.75.61,1.31,1.64,1.67,3.09.36,1.45.51,2.98.46,4.59.17,5.95.54,10.46,1.13,13.52.58,3.06,1.32,4.95,2.21,5.68.67.17,1.25.1,1.75-.21.5-.31,1.15-.92,1.96-1.84.81-.92,1.93-2.13,3.38-3.63,1.56-1.61,3.12-3.32,4.67-5.13,1.56-1.81,3.05-3.55,4.46-5.22,1.42-1.67,2.7-3.12,3.84-4.34,1.14-1.22,2.04-2.03,2.71-2.42.22-.33.61-.63,1.17-.88.56-.25,1.36-.51,2.42-.79.44.11.7.46.75,1.04.05.58.28,1.16.67,1.71.11.22.36.56.75,1,.39.45.56.81.5,1.08,0,.17-.25.54-.75,1.13-.5.58-1.03,1.16-1.59,1.71-.56.56-.97.97-1.25,1.25-.72.61-1.85,1.68-3.38,3.21-1.53,1.53-3.1,3.17-4.71,4.92-1.62,1.75-2.98,3.33-4.09,4.72-2.45,2.84-4.63,5.29-6.55,7.34-1.92,2.06-3.1,3.28-3.55,3.67-.06.11-.42.18-1.08.21-.67.03-1.14.26-1.42.71l-3.51-.42Z" style="fill: #cd522d; stroke-width: 0px;"/>
    <path d="m689.99,204.84c-1.73-.11-3.45-.74-5.17-1.88-1.72-1.14-3.31-2.21-4.76-3.21-.95-.95-1.67-1.96-2.17-3.05-.5-1.09-.92-2.52-1.25-4.3-.22-1.06-.22-2.45,0-4.17.22-1.72.58-3.46,1.08-5.22s.97-3.13,1.42-4.13c.67-1.56,1.51-3.24,2.54-5.05,1.03-1.81,2.06-3.53,3.09-5.17,1.03-1.64,1.85-2.96,2.46-3.96.39-.39.56-.61.5-.67,0-.28.29-.99.88-2.13.58-1.14,1.1-2.16,1.54-3.05.83-.89,1.31-1.61,1.42-2.17.11-.56.03-1-.25-1.34-.11-.22.12-.69.71-1.42.58-.72,1.4-1.54,2.46-2.46,1.06-.92,2.23-1.74,3.51-2.46,1.33-1.06,2.63-1.63,3.88-1.71s1.99.18,2.21.79c0,.17.32.21.96.12.64-.08,1.39-.22,2.25-.42.86-.19,1.63-.35,2.3-.46.28-.33.93-.6,1.96-.79,1.03-.19,2.24-.38,3.63-.54.72.06,1.53.07,2.42.04.89-.03,2.03-.1,3.42-.21.39-.11.96.13,1.71.71.75.58,1.35,1.38,1.79,2.38.39,1,.05,1.86-1,2.59-1.06.72-2.73,1.22-5.01,1.5-1.67.22-2.96.4-3.88.54-.92.14-1.89.31-2.92.5-1.03.2-2.52.52-4.46.96-1.39.28-2.56.5-3.51.67-.95.17-1.77.5-2.46,1-.7.5-1.46,1.39-2.3,2.67-.39.28-.89,1-1.5,2.17-.61,1.17-1.22,2.34-1.84,3.51-1.56,2.17-2.71,3.77-3.46,4.8-.75,1.03-1.02,1.68-.79,1.96,1.56.33,2.45.5,2.67.5.56-.28,1.24-.47,2.04-.58.81-.11,1.46-.22,1.96-.33,3.45-.89,6-1.54,7.64-1.96,1.64-.42,2.81-.71,3.51-.88.7-.17,1.32-.28,1.88-.33.78-.61,1.57-.57,2.38.12.81.7,1.38,1.52,1.71,2.46.39,1.11.39,1.98,0,2.59-.39.61-1.24,1.11-2.55,1.5-1.31.39-3.16.85-5.55,1.38-2.39.53-5.4,1.29-9.01,2.29-3.06.89-5.54,1.42-7.43,1.59-1.89.17-2.78-.31-2.67-1.42-.39-.22-.82-.01-1.29.63-.47.64-.9,1.52-1.29,2.63-.39,1.11-.74,2.31-1.04,3.59-.31,1.28-.49,2.48-.54,3.59-.06,1.11.03,1.98.25,2.59.45,1.28,1.15,2.38,2.13,3.3.97.92,2.41,1.66,4.3,2.21,1.11.06,2.2.14,3.25.25,1.06.11,2.25-.11,3.59-.67,3.28-.56,5.56-1.14,6.84-1.75,1.28-.61,2.06-1.03,2.34-1.25.45-.22.74-.44.88-.67.14-.22.35-.33.63-.33-.17.28-.11.28.17,0,.28-.28.72-.67,1.33-1.17,1.17-1,2.34-1.61,3.51-1.84,1.17-.22,2.14-.24,2.92-.04.78.2,1.2.43,1.25.71.33.56.17,1.43-.5,2.63-.67,1.2-1.68,2.46-3.05,3.8-1.36,1.34-2.96,2.53-4.8,3.59-2.95,1.56-6.15,2.66-9.6,3.3-3.45.64-6.54.99-9.26,1.04Z" style="fill: #cd522d; stroke-width: 0px;"/>
    <path d="m738.15,205.09c-.22.22-.47.32-.75.29-.28-.03-.72-.18-1.33-.46-1.06-.28-1.99-.89-2.8-1.84-.81-.95-.93-2.03-.38-3.26.22-.39.51-1.24.88-2.55.36-1.31.76-2.82,1.21-4.55.44-1.72.89-3.45,1.33-5.17.44-1.72.83-3.24,1.17-4.55.33-1.31.56-2.18.67-2.63,0-.44.12-1.34.38-2.67.25-1.34.49-2.84.71-4.51.61-1.17,1.04-2.45,1.29-3.84.25-1.39.43-2.39.54-3,.22-.89.49-1.84.79-2.84s.57-2,.79-3c.22-.89.46-1.81.71-2.75.25-.95.38-1.56.38-1.84v-1.34h-3.09c-.83.06-1.78.06-2.84,0-1.06-.05-2.23-.08-3.5-.08-2.62-.11-4.35-.38-5.22-.79-.86-.42-1.35-1.24-1.46-2.46-.11-.67.03-1.27.42-1.79.39-.53,1.31-.96,2.75-1.29,1.45-.33,3.67-.44,6.68-.33,2.34-.11,4.17-.13,5.51-.04,1.34.08,2.11.13,2.34.13.22-.22.36-.44.42-.67.05-.22.14-.44.25-.67,0-.28.04-.6.12-.96.08-.36.35-.63.79-.79.44-.83,1.29-1.18,2.55-1.04,1.25.14,2.18.65,2.8,1.54.22.5.29,1.03.21,1.59-.08.56.07,1.06.46,1.5.22-.22.81-.36,1.75-.42.95-.06,1.95-.11,3-.17,1.28,0,2.42-.04,3.42-.13,1-.08,1.7-.12,2.09-.12.5-.28,1.15-.42,1.96-.42s1.63.06,2.46.17c1.28,0,2.18.32,2.71.96.53.64.88,1.1,1.04,1.38,0,.22.01.45.04.67.03.22.15.45.38.67.22.22.33.38.33.46s-.11.35-.33.79c-.22.22-.61.4-1.17.54-.56.14-1.17.21-1.84.21-.39,0-1.06.04-2,.13-.95.08-1.75.12-2.42.12-1.28.22-2.53.4-3.76.54-1.22.14-2.81.26-4.76.38-.83,0-1.61.04-2.34.13-.72.08-1.08.26-1.08.54-.22,0-.52.58-.88,1.75-.36,1.17-.71,2.39-1.04,3.67-.33,1.45-.68,2.7-1.04,3.76-.36,1.06-.66,1.75-.88,2.09.22.22.32.5.29.83s-.21.92-.54,1.75c-.22.78-.43,1.39-.63,1.84-.2.45-.29.89-.29,1.34-.5,1.73-.86,3.23-1.08,4.51-.11,1.22-.26,2.25-.46,3.09-.2.83-.4,1.36-.63,1.59-.45.72-.67,1.31-.67,1.75,0,.5-.1,1.32-.29,2.46-.2,1.14-.4,2.21-.63,3.21-.22,1-.42,1.56-.58,1.67.56.11.47.86-.25,2.25,0,.56-.08,1.11-.25,1.67-.17.56-.25.95-.25,1.17-.33,1.06-.81,2.34-1.42,3.84-.61,1.5-1.18,2.84-1.71,4.01-.53,1.17-.88,1.84-1.04,2Z" style="fill: #cd522d; stroke-width: 0px;"/>
    <path d="m771.53,201.08c-1.17.45-2.14.65-2.92.63-.78-.03-1.64-.4-2.59-1.13-1.11-1.11-1.48-2.24-1.09-3.38.39-1.14,1.36-2.24,2.92-3.3,1.11-.72,1.93-1.1,2.46-1.13.53-.03,1.35.18,2.46.63,1.84,1.17,2.64,2.46,2.42,3.88-.22,1.42-1.45,2.69-3.67,3.8Zm1.92-14.77c-.89-.11-1.53-.49-1.92-1.13-.39-.64-.58-1.29-.58-1.96,0-.11-.06-.44-.17-1-.11-.56-.11-1.06,0-1.5,0-.33.17-.86.5-1.59.33-.72.7-1.59,1.08-2.59.61-1.11,1.56-2.36,2.84-3.76,1.28-1.39,2.36-2.42,3.25-3.09.5-.39.97-.72,1.42-1,0-.22.39-.65,1.17-1.29.78-.64,1.45-1.07,2-1.29,1.45-1,2.36-1.7,2.75-2.09,1.28-1.28,2.22-2.46,2.84-3.55.61-1.08,1.08-2.32,1.42-3.71.33-1.39.69-3.12,1.08-5.17.05-1.95-.03-3.16-.25-3.63-.22-.47-.67-.96-1.33-1.46-1.39-.28-2.74-.24-4.05.12-1.31.36-2.5,1.06-3.59,2.09-1.08,1.03-2.04,2.49-2.88,4.38-.33.95-.51,1.59-.54,1.92-.03.33.04.78.21,1.34,0,.45.07.97.21,1.59.14.61.21,1.06.21,1.34-.22.06-.67.18-1.34.38-.67.2-1.38.28-2.13.25-.75-.03-1.46-.35-2.13-.96-.89-1.11-1.39-1.78-1.5-2-.33-.44-.49-.88-.46-1.29.03-.42.04-1.04.04-1.88.39-1.11.92-2.36,1.59-3.76.67-1.39,1.53-2.73,2.59-4.01,1.06-1.28,2.28-2.28,3.67-3,1.17-.5,2.78-1.34,4.84-2.5.83-.05,1.75-.14,2.75-.25.33.06.71.06,1.13,0,.42-.05.63.06.63.33h2.42c.67.17,1.47.52,2.42,1.04.95.53,1.84,1.1,2.67,1.71.83.61,1.45,1.14,1.84,1.59.39,1.22.56,2.74.5,4.55-.06,1.81-.33,3.71-.83,5.72-.5,2-1.16,3.91-1.96,5.72-.81,1.81-1.77,3.33-2.88,4.55-.33.33-.95.89-1.84,1.67-.89.78-1.82,1.63-2.8,2.55s-1.77,1.71-2.38,2.38c-1.89,1.06-3.56,2.64-5.01,4.76-1.45,2.12-2.53,4.17-3.25,6.18-.61,1.34-1.28,2.23-2,2.67-.72.45-1.47.67-2.25.67Z" style="fill: #cd522d; stroke-width: 0px;"/>
  </g>
</svg>