<?xml version="1.0" encoding="UTF-8"?>
<svg id="hand" xmlns="http://www.w3.org/2000/svg" viewBox="0 0 939.77 1242.51">
  <g>
    <path d="m653.96,655.58c-5-.16-10-.33-15-.49l-9.13,3.91c.05,63.86.11,127.72.16,191.57,1.54-2.21,5.45-7.18,12.47-10.15,5.57-2.36,10.56-2.38,13.2-2.2-.57-60.88-1.14-121.77-1.71-182.65Z" style="fill: #df5f3f; stroke-width: 0px;"/>
    <polygon points="653.64 652.24 640.93 595.02 629.84 655.17 639.41 651.99 653.64 652.24" style="fill: #df5f3f; stroke-width: 0px;"/>
  </g>
  <path d="m588.57,1242.39c1.38.66,2.15-1.65,1.94-3.16-5.54-40.57-10.92-77.94-16.46-118.51l-.31-4.63c8.62-31.06,25.74-62.86,49.22-84.94,11.64-10.95,25.16-20.5,40.65-24.45,19.71-5.02,40.71-.49,59.57,7.13,13.17,5.32,26.01,12.37,35.36,23.07,3.81,4.35,6.96,9.23,10.1,14.08,23.87,36.89,47.73,73.78,71.6,110.66,1.8,2.78,3.61,5.59,4.63,8.74" style="fill: #df5f3f; stroke-width: 0px;"/>
  <g>
    <path d="m586.52,944.79c8.02,6.12,15.27,10.14,24.98,12.89l17.44-35.44-3.03-9.58-20.2-.31c-4.84-.07-9.88-.11-14.26,1.96-6.28,2.97-10,9.89-10.72,16.8-.37,3.5,0,7.26,2.06,10.12,1.01,1.4,2.37,2.51,3.74,3.56Z" style="fill: #df5f3f; stroke-width: 0px;"/>
    <path d="m815.14,1013.17c-.96-6.37-3.88-12.28-7.27-17.75-7.54-12.17-17.65-22.74-29.46-30.83-6.88-4.71-9.84-5.91-26.2-14.44-14.88-7.76-26.71-14.31-34.2-18.52l7.74,36.92,24.52-10.62,2.6,2.78c-5.21,2.35-22.09,9.07-27.31,11.42l-2,1.4c-1.53-7.78-3.06-15.55-4.58-23.33-2.69-13.69-6-28.48-16.67-37.47-2.97-2.51-6.45-4.49-8.89-7.52-3.1-3.86-4.13-8.94-6.17-13.45-4.86-10.76-15.42-18.26-19.69-29.27-2.06-5.32-2.67-11.45-6.5-15.68-5.46-6.03-15.74-5.42-22.2-.48-6.46,4.94-9.76,12.98-11.63,20.89-3.96,16.72-2.72,34.62,3.48,50.64l1.82,4.16c-14.71,25.99-26.09,53.85-33.79,82.71-3.2,11.98-6.42,22.69-2.3,34.38l-3.45,6.43c-9.42,5.89-17.27,13.89-19.71,24.73-1.27,5.66-.14,12.42,3.49,16.94l1.68,1.6c5.84-13.82,13.96-26.53,22.05-39.17,5.87-9.17,11.82-18.45,19.79-25.88,6.59-6.15,14.41-10.87,22.53-14.78,6.48-3.12,13.18-5.76,20.05-7.89,6.15-1.9,12.49-3.41,18.93-3.43,7.58-.02,15,2,22.29,4.06,10.58,3,21.19,6.14,31.1,10.91,5.12,2.46,10.05,5.36,14.55,8.83,4.75,3.67,8.99,7.97,13,12.44,13.72,15.29,25.45,28.91,33.65,47.75l1.97-3.63c-3.88-25.07,20.55-39.73,16.77-64.82Z" style="fill: #df5f3f; stroke-width: 0px;"/>
  </g>
</svg>