<?xml version="1.0" encoding="UTF-8"?>
<svg id="angry" xmlns="http://www.w3.org/2000/svg" viewBox="0 0 939.77 1242.51">
  <path d="m381.44,194.67c.22.1.84.59.26.06-.3-.25-.36-.29-.17-.11.26.27.16.12-.32-.45,0,.02.28.51.3.51-.24-.04-.32-1.19-.13-.19.02.1.13.75.17.77-.14-.08-.07-1.15-.07-.36,0,.49,0,.97-.02,1.45-.03.65.01.4.04-.1-.01.31-.1.64-.16.95-.1.57-.23,1.13-.37,1.69-.3,1.18-.7,2.33-1.14,3.47-.25.67.37-.77.05-.13-.15.28-.27.58-.41.87-.26.52-.53,1.02-.82,1.52s-.59.99-.91,1.47c-.18.27-.36.53-.55.79-.38.53-.21.59-.03.06-.16.46-.8.96-1.12,1.32-.39.43-.79.84-1.2,1.24-.46.45-.94.87-1.43,1.29-.19.16-.38.36-.6.48,1.02-.58-.03,0-.22.13-2.13,1.5-3.34,4.44-1.79,6.84,1.37,2.12,4.56,3.41,6.84,1.79,5.61-3.96,9.72-9.3,12.11-15.73,1.05-2.82,1.81-6.06,1.73-9.08-.09-3.56-1.52-7.61-5.01-9.18-2.38-1.07-5.49-.76-6.84,1.79-1.16,2.19-.75,5.69,1.79,6.84h0Z" style="fill: #cd522d; stroke-width: 0px;"/>
  <path d="m393.89,180.98c-1.09,8.65,5.39,16.52,12.97,19.72,3.95,1.67,8.19,2.39,12.47,2.49,2.27.05,4.5-.12,6.49-1.32,3.05-1.85,4.02-5.38,2.4-8.53-1.2-2.33-4.66-3.2-6.84-1.79-2.38,1.53-3.07,4.35-1.79,6.84-.86-2.33-.56-3.97.9-4.94.34-.23.39-.28.16-.14-.49.29,1.05-.3.18-.08-.98.25.92.05.21-.04-.34-.04-.71,0-1.06,0-1.42-.01-2.84-.1-4.25-.27,1.22.14-.19-.05-.35-.08-.28-.05-.56-.11-.83-.16-.69-.15-1.37-.32-2.05-.52s-1.33-.44-1.98-.7c1.07.42-.2-.12-.34-.19-.31-.16-.62-.32-.93-.5s-.61-.36-.9-.55c-.12-.08-1.02-.68-.43-.28s-.36-.31-.39-.34c-.24-.21-.48-.43-.71-.66s-.45-.46-.67-.7c-.09-.1-.81-.94-.35-.38s-.27-.4-.29-.43c-.18-.27-.35-.54-.51-.81s-.31-.56-.46-.84c-.07-.15-.43-1.14-.22-.45s-.09-.33-.14-.47c-.09-.3-.18-.6-.25-.91-.06-.27-.2-.64-.18-.92-.05.59.08.7.05.02s.01-1.39.1-2.08c.33-2.61-2.53-5.11-5-5-2.99.13-4.65,2.21-5,5h0Z" style="fill: #cd522d; stroke-width: 0px;"/>
  <path d="m383.62,235.5c.16-.26.34-.51.49-.77.33-.56-.57.61-.12.15.38-.39.75-.79,1.14-1.17.83-.8-.57.35-.02-.01.26-.17.5-.35.76-.51.47-.29.97-.52,1.45-.79.59-.32-1.12.38,0,0,.23-.08.47-.16.7-.24.53-.17,1.07-.31,1.62-.42.83-.17.37.12-.05-.03.17.06.55-.06.74-.07.68-.05,1.36-.05,2.04-.02.29.01.58.04.87.06.98.06-.42-.11.18.02.64.14,1.28.24,1.91.4,1.27.32,2.52.75,3.73,1.25-.91-.38.03.03.21.12.33.15.66.31.99.48.57.29,1.14.59,1.7.91.2.11.39.25.59.36.48.25-.63-.69-.08-.03-2.05-2.45.59-5.8,3.79-5.1-2.55-.56-5.53.77-6.15,3.49-.58,2.53.76,5.55,3.49,6.15,3.51.78,6.92-1.15,7.9-4.69.75-2.72-.35-5.6-2.46-7.38-1.63-1.38-3.57-2.33-5.52-3.19-2.06-.91-4.16-1.74-6.38-2.22-8.29-1.79-17.57.55-22.16,8.19-1.35,2.25-.57,5.59,1.79,6.84s5.4.6,6.84-1.79h0Z" style="fill: #cd522d; stroke-width: 0px;"/>
  <path d="m423.4,226.61c-.34-.46-.61-.93-.84-1.44l.5,1.19c-.21-.53-.35-1.05-.44-1.61l.18,1.33c-.08-.74-.06-1.45.03-2.19l-.18,1.33c.25-1.57.76-3.09,1.38-4.56l-.5,1.19c.3-.69.63-1.36,1.01-2,.14-.24.29-.47.45-.71.1-.15.21-.3.32-.45-.5.64-.59.76-.26.36.44-.46.95-.87,1.38-1.33-.66.5-.78.6-.35.3.15-.1.3-.2.46-.29.31-.18.64-.34.97-.49l-1.19.5c.67-.28,1.34-.47,2.06-.58l-1.33.18c.63-.07,1.24-.08,1.87,0l-1.33-.18.19.06-2.99-2.3.1.15.78-6.06-.07.07,4.86-1.29-.1-.03,3.67,4.82v-.07c.21-2.61-2.44-5.11-4.99-5-2.89.13-4.78,2.2-5,5v.07c-.17,2.11,1.66,4.33,3.67,4.82,1.82.44,3.7.02,5.04-1.33,1.48-1.5,2.01-4.23.78-6.06-.53-.8-1.09-1.42-1.89-1.94-.84-.54-1.76-.63-2.72-.74-.54-.06-1.06-.08-1.6-.03-1.85.15-3.42.61-5.09,1.41-2.58,1.23-4.66,3.45-6.16,5.85-1.36,2.19-2.42,4.83-2.93,7.37-.66,3.32-.43,6.9,1.65,9.72.8,1.08,1.64,1.93,2.99,2.3,1.2.33,2.79.18,3.85-.5,2.08-1.34,3.45-4.59,1.79-6.84h0Z" style="fill: #cd522d; stroke-width: 0px;"/>
</svg>