<?xml version="1.0" encoding="UTF-8"?>
<svg id="david" xmlns="http://www.w3.org/2000/svg" viewBox="0 0 939.77 1242.51">
  <path d="m667.54,943.19h-10.36v-29.33c1.82-1.38,2.96-3.79,3.16-7.79,0,0-1.07-15.97-8.73-25.26-7.79-9.29-39.84-43.83-43-59.84-3-16.01-2.45-68.1-17.98-99.01-15.41-30.99-31.94-46.92-35.49-66.48-3.68-19.64-8.81-56.8-16.05-84.03-7.23-27.39-9.8-34.62-11.26-47.98-1.62-13.44-1.07-29.49-5.77-45.93-4.58-16.56-3.08-25.3-.99-37.11,2.09-11.9,5.65-54.7,5.65-54.7,0,0,25.3,28.89,39.72,35.57,14.39,6.72,22.65,10.36,26.36,7.23,3.6-3.12,7.27-13.91,5.06-25.73-2.06-11.94,3.16-13.99-14.39-35.57-17.55-21.7-34.07-39.76-38.22-50.08-4.11-10.36-22.17-24.23-22.17-24.23,0,0-3-11.34-9.21-12.92-6.21-1.54-12.92,1.58-12.92,1.58,0,0-5.14-1.58-7.23,1.5-2.02,3.08.99,10.87.99,10.87,0,0-3.52,3.08-6.13,8.22-2.61,5.14-6.8,12.96-10.83,12.41-4.11-.55-9.33-2.06-10.39-6.72-1.03-4.62-1.03-12.33-1.03-12.33,0,0,10.39-6.72,11.94-11.94,1.5-5.14,5.14-18.06,5.14-25.3s.51-11.82.51-11.82l4.66-7.75s6.72-3.08,5.14-8.26c-1.58-5.14-6.64-5.14-4.62-9.8,2.13-4.62,2.13-12.33-.99-14.47-3.12-2.02-10.83-5.1-10.36-8.22.51-3.04-11.42-5.14-13.91-2.06-2.57,3.12-6.72,5.18-12.37,2.06-5.61-3.04-14.98-2.06-18.06,2.09-3.08,4.11-4.66,4.62-7.79,4.62s-6.72-.95-8.22,3.68c-1.5,4.58-3.64,8.22-7.23,9.21-3.6,1.07-6.68,1.07-5.61,4.7.91,3.6-.51,14.43-3.64,15.45-3.16.95-3.6,3.6-2.57,6.68.99,3.04,3.08,5.14.99,8.18-2.02,3.16-3.08,4.66-.51,6.76,2.61,2.13,8.22,6.21,7.23,8.26-1.07,2.06-5.14,4.15-3.08,7.19,2.02,3.12,8.3,5.77,6.21,9.84-2.13,4.11-1.03,6.17,2.09,7.75,3,1.58,6.72,2.57,6.72,2.57,0,0,2.45,23.71-4.62,30.43-7.31,6.72-23.24,15.45-32.05,18.54-8.77,3.12-25.3,13.44-28.81,25.81-3.68,12.41.51,35.57-2.65,45.85-3.08,10.32-6.17,29.45-6.68,42.88-.51,13.36-1.07,26.76-2.57,34.5-1.62,7.75-3.12,22.17-.99,37.11,1.98,14.98,3.56,21.11,2.45,31.46-.99,10.32,6.72,21.66,8.22,30.47,1.58,8.77,5.73,11.34,11.42,14.98,5.65,3.6,5.65,11.82,19.01,15.93,13.44,4.15,20.63,4.15,20.63,4.15,0,0,1.15-.51,2.45-1.23,5.73,19.37,11.62,38.14,12.49,42.96,1.58,8.81,1.58,27.83,2.49,34.58,1.15,6.64-2.49,30.91,2.65,54.15,2.73,12.53,12.29,32.81,20.95,51.58-1.98,1.03-5.14,2.37-7.59,1.03-3.6-2.09-8.3-5.22-8.3-5.22,0,0-4.11,4.11-5.06,11.38-1.15,7.19-8.89,12.33-8.89,12.33,0,0,18.14,8.26,20.71,19.6,2.53,11.34,0,22.17-2.09,29.92-1.3,4.58-3.12,11.26-4.55,16.01h-6.72v48.97h-10.12v8.26h4.51l-2.92,30.91h254.58l-3-30.91h4.62s0-8.26,0-8.26Zm-268.73-452.24c-1.5,10.83-3.64,31.42-6.64,41.22-2.65,8.22-1.66,24.86.28,42.21-.79-1.19-1.58-2.21-2.37-2.96-7.27-6.72-24.35-9.8-24.74-20.63-.51-10.87,13.44-32.49,10.83-50.55s-2.13-23.2,2.61-38.18c4.55-14.94,8.22-38.69,8.22-38.69,0,0,17.07,19.6,18.5,32.01,1.54,12.41-5.18,24.74-6.68,35.57Zm119.6,403.31c-.99-4.23-3.12-10.71-6.64-17.51-6.21-11.9-10.36-21.11-13.36-30.95-3.12-9.84,1.5-14.43-5.22-19.6-6.64-5.18-5.14-6.68-5.14-12.92s8.81-16.48,3.12-24.23c-5.73-7.67-7.79-8.18-7.79-16.96s-1.03-29.49-1.62-36.16c-.43-6.68-2.92-16.52.59-19.13,3.6-2.53,8.34-4.58,3.12-8.22-5.22-3.6-4.11-3.04-7.23-7.19-3.12-4.11-2.53-9.25-7.79-4.66-2.17,2.06-4.7,3.95-7.04,5.89.87-14.15.4-31.74-.2-43-.51-11.9-1.46-31.5-.51-40.79,1.07-9.29,1.07-23.79,1.07-23.79,0,0,11.9,21.74,20.08,33.04,8.22,11.34,16.52,16.52,19.6,25.34,3.12,8.73,9.25,29.88,15.49,40.2,6.28,10.36,13.44,12.37,17.03,28.85,3.64,16.48,9.88,39.17,18.62,48.5,8.81,9.25,18.66,32.49,23.71,47.86,5.18,15.57,12.33,21.74,11.9,35.65-.51,13.91,2.09,23.71,8.26,26.8,5.97,3,12.53,6.52,15.65,12.92h-95.65v.08h-.08Z" style="fill: #df5f3f; stroke-width: 0px;"/>
</svg>